<?xml version="1.0" encoding="UTF-8" standalone="no"?>
<svg
   xmlns:dc="http://purl.org/dc/elements/1.1/"
   xmlns:cc="http://creativecommons.org/ns#"
   xmlns:rdf="http://www.w3.org/1999/02/22-rdf-syntax-ns#"
   xmlns:svg="http://www.w3.org/2000/svg"
   xmlns="http://www.w3.org/2000/svg"
   xmlns:sodipodi="http://sodipodi.sourceforge.net/DTD/sodipodi-0.dtd"
   xmlns:inkscape="http://www.inkscape.org/namespaces/inkscape"
   sodipodi:docname="concept2.svg"
   id="svg1308"
   version="1.1"
   viewBox="0 0 60.72 128.5"
   height="485.6692913385827"
   width="229.49291338582677"
   inkscape:version="1.0.2 (e86c870879, 2021-01-15)">
  <defs
     id="defs1302" />
  <sodipodi:namedview
     id="base"
     pagecolor="#ffffff"
     bordercolor="#666666"
     borderopacity="1.0"
     inkscape:pageopacity="0.0"
     inkscape:pageshadow="2"
     inkscape:zoom="2.1221114"
     inkscape:cx="116.00446"
     inkscape:cy="113.1595"
     inkscape:document-units="mm"
     inkscape:current-layer="g3599"
     inkscape:document-rotation="0"
     showgrid="false"
     inkscape:pagecheckerboard="true"
     inkscape:window-width="1366"
     inkscape:window-height="703"
     inkscape:window-x="0"
     inkscape:window-y="0"
     inkscape:window-maximized="1"
     showguides="false">
    <sodipodi:guide
       position="-24.063101,102.06799"
       orientation="1,0"
       id="guide1031" />
  </sodipodi:namedview>
  <metadata
     id="metadata1305">
    <rdf:RDF>
      <cc:Work
         rdf:about="">
        <dc:format>image/svg+xml</dc:format>
        <dc:type
           rdf:resource="http://purl.org/dc/dcmitype/StillImage" />
        <dc:title />
      </cc:Work>
    </rdf:RDF>
  </metadata>
  <g
     inkscape:label="Layer 1"
     inkscape:groupmode="layer"
     id="layer1" />
  <g
     inkscape:label="Panel"
     id="g1317"
     sodipodi:insensitive="true">
    <g
       inkscape:groupmode="layer"
       inkscape:label="Panel"
       id="panel">
      <rect
         x="0"
         y="0"
         width="60.720001"
         height="128.5"
         rx="0"
         ry="0"
         style="fill:#ffffff;stroke:none;stroke-width:0mm"
         id="rect1314" />
    </g>
  </g>
  <g
     inkscape:label="Panel"
     id="g1334"
     sodipodi:insensitive="true">
    <g
       inkscape:groupmode="layer"
       inkscape:label="Panel"
       id="g1332">
      <rect
         x="0"
         y="0"
         width="60.720001"
         height="128.5"
         rx="0"
         ry="0"
         style="fill:#ffffff;stroke:none;stroke-width:0mm"
         id="rect1330" />
    </g>
  </g>
  <g
     inkscape:groupmode="layer"
     inkscape:label="Jacks Group"
     id="jacks-group">
    <g
       inkscape:groupmode="layer"
       inkscape:label="Man Input"
       id="g1485">
      <g
         inkscape:groupmode="layer"
         inkscape:label="Nut skirt"
         id="g1476" />
      <g
         inkscape:groupmode="layer"
         inkscape:label="Nut"
         id="g1480" />
      <g
         inkscape:groupmode="layer"
         inkscape:label="Main color"
         id="g1483" />
    </g>
    <g
       inkscape:groupmode="layer"
       inkscape:label="Man Input"
       id="g1522">
      <g
         inkscape:groupmode="layer"
         inkscape:label="Nut skirt"
         id="g1512" />
      <g
         inkscape:groupmode="layer"
         inkscape:label="Nut"
         id="g1516" />
      <g
         inkscape:groupmode="layer"
         inkscape:label="Main color"
         id="g1520" />
    </g>
    <g
       inkscape:groupmode="layer"
       inkscape:label="Man Input"
       id="g3150">
      <g
         inkscape:groupmode="layer"
         inkscape:label="Nut skirt"
         id="g3137" />
      <g
         inkscape:groupmode="layer"
         inkscape:label="Nut"
         id="g3141" />
      <g
         inkscape:groupmode="layer"
         inkscape:label="Main color"
         id="g3144" />
      <g
         inkscape:groupmode="layer"
         inkscape:label="Centering circle"
         id="g3148" />
    </g>
  </g>
  <g
     inkscape:groupmode="layer"
     id="layer2"
     inkscape:label="Courtyards"
     style="display:inline" />
  <g
     inkscape:groupmode="layer"
     id="layer3"
     inkscape:label="Outlines"
     style="opacity:0.996">
    <g
       id="g1000">
      <rect
         style="display:inline;opacity:0.313971;fill:none;stroke:#767676;stroke-width:0.265;stroke-linecap:square;stroke-miterlimit:4;stroke-dasharray:none;stroke-opacity:1"
         id="rect916"
         width="16"
         height="16"
         x="3.8279188"
         y="7.762898" />
      <rect
         style="display:inline;fill:#000000;fill-opacity:0.0943718;stroke:#767676;stroke-width:0.5;stroke-linecap:square;stroke-linejoin:miter;stroke-miterlimit:4;stroke-dasharray:none;stroke-opacity:1"
         id="rect921"
         width="17.5"
         height="17.5"
         x="3.0779188"
         y="7.012898"
         ry="2.2181239"
         rx="2.2181239" />
    </g>
    <g
       id="g972"
       transform="translate(63.516687,-6.683825)">
      <rect
         style="display:inline;opacity:0.313971;fill:none;stroke:#767676;stroke-width:0.265;stroke-linecap:square;stroke-miterlimit:4;stroke-dasharray:none;stroke-opacity:1"
         id="rect960"
         width="7.7350001"
         height="7.7350001"
         x="-32.906353"
         y="30.682684" />
      <circle
         style="opacity:1;fill:#000000;fill-opacity:0.0943718;stroke:#767676;stroke-width:0.499999;stroke-linecap:square;stroke-linejoin:miter;stroke-miterlimit:4;stroke-dasharray:none;stroke-opacity:1"
         id="path968"
         cx="-29.038853"
         cy="34.550182"
         r="4" />
    </g>
    <g
       id="g982"
       transform="translate(64.084816,22.423087)">
      <rect
         style="display:inline;opacity:0.313971;fill:none;stroke:#767676;stroke-width:0.265;stroke-linecap:square;stroke-miterlimit:4;stroke-dasharray:none;stroke-opacity:1"
         id="rect978"
         width="7.7350001"
         height="7.7350001"
         x="-32.906353"
         y="30.682684" />
      <circle
         style="opacity:1;fill:#000000;fill-opacity:0.0943718;stroke:#767676;stroke-width:0.499999;stroke-linecap:square;stroke-linejoin:miter;stroke-miterlimit:4;stroke-dasharray:none;stroke-opacity:1"
         id="circle980"
         cx="-29.038853"
         cy="34.550182"
         r="4" />
    </g>
    <g
       id="g988"
       transform="translate(64.307302,51.530007)">
      <rect
         style="display:inline;opacity:0.313971;fill:none;stroke:#767676;stroke-width:0.265;stroke-linecap:square;stroke-miterlimit:4;stroke-dasharray:none;stroke-opacity:1"
         id="rect984"
         width="7.7350001"
         height="7.7350001"
         x="-32.906353"
         y="30.682684" />
      <circle
         style="opacity:1;fill:#000000;fill-opacity:0.0943718;stroke:#767676;stroke-width:0.499999;stroke-linecap:square;stroke-linejoin:miter;stroke-miterlimit:4;stroke-dasharray:none;stroke-opacity:1"
         id="circle986"
         cx="-29.038853"
         cy="34.550182"
         r="4" />
    </g>
    <g
       id="g994"
       transform="translate(63.911712,80.636935)">
      <rect
         style="display:inline;opacity:0.313971;fill:none;stroke:#767676;stroke-width:0.265;stroke-linecap:square;stroke-miterlimit:4;stroke-dasharray:none;stroke-opacity:1"
         id="rect990"
         width="7.7350001"
         height="7.7350001"
         x="-32.906353"
         y="30.682684" />
      <circle
         style="opacity:1;fill:#000000;fill-opacity:0.0943718;stroke:#767676;stroke-width:0.499999;stroke-linecap:square;stroke-linejoin:miter;stroke-miterlimit:4;stroke-dasharray:none;stroke-opacity:1"
         id="circle992"
         cx="-29.038853"
         cy="34.550182"
         r="4" />
    </g>
    <g
       id="g1006"
       transform="translate(0.56813096,23.747489)">
      <rect
         style="display:inline;opacity:0.313971;fill:none;stroke:#767676;stroke-width:0.265;stroke-linecap:square;stroke-miterlimit:4;stroke-dasharray:none;stroke-opacity:1"
         id="rect1002"
         width="16"
         height="16"
         x="3.8279188"
         y="7.762898" />
      <rect
         style="display:inline;fill:#000000;fill-opacity:0.0943718;stroke:#767676;stroke-width:0.5;stroke-linecap:square;stroke-linejoin:miter;stroke-miterlimit:4;stroke-dasharray:none;stroke-opacity:1"
         id="rect1004"
         width="17.5"
         height="17.5"
         x="3.0779188"
         y="7.012898"
         ry="2.2181239"
         rx="2.2181239" />
    </g>
    <g
       id="g1012"
       transform="translate(0.79061496,47.494977)">
      <rect
         style="display:inline;opacity:0.313971;fill:none;stroke:#767676;stroke-width:0.265;stroke-linecap:square;stroke-miterlimit:4;stroke-dasharray:none;stroke-opacity:1"
         id="rect1008"
         width="16"
         height="16"
         x="3.8279188"
         y="7.762898" />
      <rect
         style="display:inline;fill:#000000;fill-opacity:0.0943718;stroke:#767676;stroke-width:0.5;stroke-linecap:square;stroke-linejoin:miter;stroke-miterlimit:4;stroke-dasharray:none;stroke-opacity:1"
         id="rect1010"
         width="17.5"
         height="17.5"
         x="3.0779188"
         y="7.012898"
         ry="2.2181239"
         rx="2.2181239" />
    </g>
    <g
       id="g1035"
       transform="translate(31.110334,22.945398)">
      <rect
         style="display:inline;opacity:0.313971;fill:none;stroke:#767676;stroke-width:0.265;stroke-linecap:square;stroke-miterlimit:4;stroke-dasharray:none;stroke-opacity:1"
         id="rect1022"
         width="6.7350001"
         height="12.735"
         x="-1.3499854e-08"
         y="-15.999999" />
      <circle
         cx="3.3675001"
         cy="-9.6324997"
         id="circle1016"
         style="opacity:0.313971;fill:#000000;stroke:#ffffff;stroke-width:0.5"
         r="3.5" />
    </g>
    <g
       id="g1041"
       transform="translate(31.678463,52.052312)">
      <rect
         style="display:inline;opacity:0.313971;fill:none;stroke:#767676;stroke-width:0.265;stroke-linecap:square;stroke-miterlimit:4;stroke-dasharray:none;stroke-opacity:1"
         id="rect1037"
         width="6.7350001"
         height="12.735"
         x="-1.3499854e-08"
         y="-15.999999" />
      <circle
         cx="3.3675001"
         cy="-9.6324997"
         id="circle1039"
         style="opacity:0.313971;fill:#000000;stroke:#ffffff;stroke-width:0.5"
         r="3.5" />
    </g>
    <g
       id="g1047"
       transform="translate(31.900949,81.159224)">
      <rect
         style="display:inline;opacity:0.313971;fill:none;stroke:#767676;stroke-width:0.265;stroke-linecap:square;stroke-miterlimit:4;stroke-dasharray:none;stroke-opacity:1"
         id="rect1043"
         width="6.7350001"
         height="12.735"
         x="-1.3499854e-08"
         y="-15.999999" />
      <circle
         cx="3.3675001"
         cy="-9.6324997"
         id="circle1045"
         style="opacity:0.313971;fill:#000000;stroke:#ffffff;stroke-width:0.5"
         r="3.5" />
    </g>
    <g
       id="g1053"
       transform="translate(31.505359,110.26615)">
      <rect
         style="display:inline;opacity:0.313971;fill:none;stroke:#767676;stroke-width:0.265;stroke-linecap:square;stroke-miterlimit:4;stroke-dasharray:none;stroke-opacity:1"
         id="rect1049"
         width="6.7350001"
         height="12.735"
         x="-1.3499854e-08"
         y="-15.999999" />
      <circle
         cx="3.3675001"
         cy="-9.6324997"
         id="circle1051"
         style="opacity:0.313971;fill:#000000;stroke:#ffffff;stroke-width:0.5"
         r="3.5" />
    </g>
    <g
       id="g1089"
       transform="rotate(90,-41.771258,65.014115)">
      <rect
         style="display:inline;opacity:0.313971;fill:none;stroke:#767676;stroke-width:0.265;stroke-linecap:square;stroke-miterlimit:4;stroke-dasharray:none;stroke-opacity:1"
         id="rect1085"
         width="6.7350001"
         height="12.735"
         x="-24.072683"
         y="4.2568231" />
      <circle
         cx="-20.705183"
         cy="10.624323"
         id="circle1087"
         style="opacity:0.313971;fill:#000000;stroke:#ffffff;stroke-width:0.5"
         r="2.75" />
    </g>
  </g>
  <g
     inkscape:groupmode="layer"
     inkscape:label="Knobs Group"
     id="knobs-group">
    <g
       inkscape:groupmode="layer"
       inkscape:label="Gate Length 1"
       id="g2893">
      <g
         inkscape:groupmode="layer"
         inkscape:label="Main color"
         id="g2891" />
    </g>
    <g
       inkscape:groupmode="layer"
       inkscape:label="Gate Length 1"
       id="g3601">
      <g
         inkscape:groupmode="layer"
         inkscape:label="Skirt"
         id="g3596" />
      <g
         inkscape:groupmode="layer"
         inkscape:label="Main color"
         id="g3599"
         style="opacity:0.31397109">
        <g
           id="g1126"
           transform="translate(66.742401,-60.144193)">
          <rect
             style="display:inline;opacity:0.313971;fill:none;stroke:#767676;stroke-width:0.265;stroke-linecap:square;stroke-miterlimit:4;stroke-dasharray:none;stroke-opacity:1"
             id="rect1097"
             width="8.7350006"
             height="10.735"
             x="69.089592"
             y="11.107301"
             transform="rotate(90)" />
          <rect
             style="display:inline;opacity:0.313971;fill:none;stroke:#767676;stroke-width:0.264999;stroke-linecap:square;stroke-miterlimit:4;stroke-dasharray:none;stroke-opacity:1"
             id="rect1105"
             width="0.73500103"
             height="0.73500001"
             x="73.089592"
             y="6.8826051"
             transform="rotate(90)"
             ry="4.3674998"
             rx="4.3675003" />
          <g
             id="g1095"
             transform="translate(-69.645363,-13.630478)">
            <path
               sodipodi:type="star"
               sodipodi:cx="53.170563"
               sodipodi:cy="87.08757"
               sodipodi:arg1="0.78539816"
               sodipodi:arg2="0.84823001"
               inkscape:rounded="0"
               sodipodi:sides="50"
               sodipodi:r1="4"
               sodipodi:r2="3.8095238"
               style="fill:#1a5fb4;stroke:#000000;stroke-width:0.1"
               id="path1091"
               inkscape:flatsided="false"
               inkscape:randomized="0"
               d="m 55.99899,89.915997 -0.309144,0.02914 -0.06766,0.303054 -0.310358,-0.0098 -0.105105,0.292185 -0.306678,-0.04866 -0.140896,0.276708 -0.298161,-0.08671 -0.174466,0.256867 -0.284942,-0.123397 -0.205284,0.232976 -0.26723,-0.158137 -0.232865,0.205409 -0.245303,-0.190382 -0.256773,0.174604 -0.219508,-0.219626 -0.276632,0.141045 -0.19025,-0.245405 -0.292129,0.105261 -0.157993,-0.267315 -0.303017,0.06782 -0.123244,-0.285009 -0.309128,0.02931 -0.08655,-0.298207 -0.310364,-0.0097 -0.04849,-0.306704 -0.306705,-0.04849 -0.0097,-0.310364 -0.298208,-0.08655 0.02931,-0.309128 -0.285009,-0.123244 0.06782,-0.303017 -0.267315,-0.157993 0.105261,-0.292129 -0.245405,-0.19025 0.141044,-0.276632 -0.219625,-0.219508 0.174604,-0.256773 -0.190382,-0.245303 0.205409,-0.232865 -0.158137,-0.26723 0.232976,-0.205284 -0.123397,-0.284942 0.256867,-0.174466 -0.08671,-0.298161 0.276708,-0.140896 -0.04866,-0.306678 0.292185,-0.105105 -0.0098,-0.310358 0.303054,-0.06766 0.02914,-0.309144 0.309143,-0.02914 0.06766,-0.303054 0.310358,0.0098 0.105104,-0.292185 0.306678,0.04866 0.140896,-0.276708 0.298162,0.08671 0.174465,-0.256867 0.284943,0.123397 0.205284,-0.232975 0.26723,0.158136 0.232865,-0.205409 0.245303,0.190382 0.256773,-0.174604 0.219508,0.219626 0.276632,-0.141045 0.19025,0.245406 0.292128,-0.105262 0.157993,0.267315 0.303018,-0.06782 0.123243,0.285009 0.309128,-0.02931 0.08655,0.298208 0.310363,0.0097 0.04849,0.306704 0.306704,0.04849 0.0097,0.310363 0.298208,0.08655 -0.02931,0.309128 0.285009,0.123243 -0.06782,0.303018 0.267315,0.157992 -0.105262,0.292129 0.245406,0.19025 -0.141045,0.276632 0.219626,0.219508 -0.174604,0.256773 0.190382,0.245303 -0.205409,0.232865 0.158136,0.26723 -0.232975,0.205284 0.123396,0.284943 -0.256867,0.174465 0.08671,0.298162 -0.276708,0.140896 0.04866,0.306678 -0.292185,0.105104 0.0098,0.310358 -0.303054,0.06766 z" />
            <circle
               cx="53.170563"
               cy="87.08757"
               r="2.375"
               id="circle1093"
               style="fill:#000000;stroke:#000000;stroke-width:1.25" />
          </g>
        </g>
        <g
           id="g1138"
           transform="translate(66.742401,-45.590735)">
          <rect
             style="display:inline;opacity:0.313971;fill:none;stroke:#767676;stroke-width:0.265;stroke-linecap:square;stroke-miterlimit:4;stroke-dasharray:none;stroke-opacity:1"
             id="rect1128"
             width="8.7350006"
             height="10.735"
             x="69.089592"
             y="11.107301"
             transform="rotate(90)" />
          <rect
             style="display:inline;opacity:0.313971;fill:none;stroke:#767676;stroke-width:0.264999;stroke-linecap:square;stroke-miterlimit:4;stroke-dasharray:none;stroke-opacity:1"
             id="rect1130"
             width="0.73500103"
             height="0.73500001"
             x="73.089592"
             y="6.8826051"
             transform="rotate(90)"
             ry="4.3674998"
             rx="4.3675003" />
          <g
             id="g1136"
             transform="translate(-69.645363,-13.630478)">
            <path
               sodipodi:type="star"
               sodipodi:cx="53.170563"
               sodipodi:cy="87.08757"
               sodipodi:arg1="0.78539816"
               sodipodi:arg2="0.84823001"
               inkscape:rounded="0"
               sodipodi:sides="50"
               sodipodi:r1="4"
               sodipodi:r2="3.8095238"
               style="fill:#1a5fb4;stroke:#000000;stroke-width:0.1"
               id="path1132"
               inkscape:flatsided="false"
               inkscape:randomized="0"
               d="m 55.99899,89.915997 -0.309144,0.02914 -0.06766,0.303054 -0.310358,-0.0098 -0.105105,0.292185 -0.306678,-0.04866 -0.140896,0.276708 -0.298161,-0.08671 -0.174466,0.256867 -0.284942,-0.123397 -0.205284,0.232976 -0.26723,-0.158137 -0.232865,0.205409 -0.245303,-0.190382 -0.256773,0.174604 -0.219508,-0.219626 -0.276632,0.141045 -0.19025,-0.245405 -0.292129,0.105261 -0.157993,-0.267315 -0.303017,0.06782 -0.123244,-0.285009 -0.309128,0.02931 -0.08655,-0.298207 -0.310364,-0.0097 -0.04849,-0.306704 -0.306705,-0.04849 -0.0097,-0.310364 -0.298208,-0.08655 0.02931,-0.309128 -0.285009,-0.123244 0.06782,-0.303017 -0.267315,-0.157993 0.105261,-0.292129 -0.245405,-0.19025 0.141044,-0.276632 -0.219625,-0.219508 0.174604,-0.256773 -0.190382,-0.245303 0.205409,-0.232865 -0.158137,-0.26723 0.232976,-0.205284 -0.123397,-0.284942 0.256867,-0.174466 -0.08671,-0.298161 0.276708,-0.140896 -0.04866,-0.306678 0.292185,-0.105105 -0.0098,-0.310358 0.303054,-0.06766 0.02914,-0.309144 0.309143,-0.02914 0.06766,-0.303054 0.310358,0.0098 0.105104,-0.292185 0.306678,0.04866 0.140896,-0.276708 0.298162,0.08671 0.174465,-0.256867 0.284943,0.123397 0.205284,-0.232975 0.26723,0.158136 0.232865,-0.205409 0.245303,0.190382 0.256773,-0.174604 0.219508,0.219626 0.276632,-0.141045 0.19025,0.245406 0.292128,-0.105262 0.157993,0.267315 0.303018,-0.06782 0.123243,0.285009 0.309128,-0.02931 0.08655,0.298208 0.310363,0.0097 0.04849,0.306704 0.306704,0.04849 0.0097,0.310363 0.298208,0.08655 -0.02931,0.309128 0.285009,0.123243 -0.06782,0.303018 0.267315,0.157992 -0.105262,0.292129 0.245406,0.19025 -0.141045,0.276632 0.219626,0.219508 -0.174604,0.256773 0.190382,0.245303 -0.205409,0.232865 0.158136,0.26723 -0.232975,0.205284 0.123396,0.284943 -0.256867,0.174465 0.08671,0.298162 -0.276708,0.140896 0.04866,0.306678 -0.292185,0.105104 0.0098,0.310358 -0.303054,0.06766 z" />
            <circle
               cx="53.170563"
               cy="87.08757"
               r="2.375"
               id="circle1134"
               style="fill:#000000;stroke:#000000;stroke-width:1.25" />
          </g>
        </g>
        <g
           id="g1150"
           transform="translate(67.310531,-31.037279)">
          <rect
             style="display:inline;opacity:0.313971;fill:none;stroke:#767676;stroke-width:0.265;stroke-linecap:square;stroke-miterlimit:4;stroke-dasharray:none;stroke-opacity:1"
             id="rect1140"
             width="8.7350006"
             height="10.735"
             x="69.089592"
             y="11.107301"
             transform="rotate(90)" />
          <rect
             style="display:inline;opacity:0.313971;fill:none;stroke:#767676;stroke-width:0.264999;stroke-linecap:square;stroke-miterlimit:4;stroke-dasharray:none;stroke-opacity:1"
             id="rect1142"
             width="0.73500103"
             height="0.73500001"
             x="73.089592"
             y="6.8826051"
             transform="rotate(90)"
             ry="4.3674998"
             rx="4.3675003" />
          <g
             id="g1148"
             transform="translate(-69.645363,-13.630478)">
            <path
               sodipodi:type="star"
               sodipodi:cx="53.170563"
               sodipodi:cy="87.08757"
               sodipodi:arg1="0.78539816"
               sodipodi:arg2="0.84823001"
               inkscape:rounded="0"
               sodipodi:sides="50"
               sodipodi:r1="4"
               sodipodi:r2="3.8095238"
               style="fill:#1a5fb4;stroke:#000000;stroke-width:0.1"
               id="path1144"
               inkscape:flatsided="false"
               inkscape:randomized="0"
               d="m 55.99899,89.915997 -0.309144,0.02914 -0.06766,0.303054 -0.310358,-0.0098 -0.105105,0.292185 -0.306678,-0.04866 -0.140896,0.276708 -0.298161,-0.08671 -0.174466,0.256867 -0.284942,-0.123397 -0.205284,0.232976 -0.26723,-0.158137 -0.232865,0.205409 -0.245303,-0.190382 -0.256773,0.174604 -0.219508,-0.219626 -0.276632,0.141045 -0.19025,-0.245405 -0.292129,0.105261 -0.157993,-0.267315 -0.303017,0.06782 -0.123244,-0.285009 -0.309128,0.02931 -0.08655,-0.298207 -0.310364,-0.0097 -0.04849,-0.306704 -0.306705,-0.04849 -0.0097,-0.310364 -0.298208,-0.08655 0.02931,-0.309128 -0.285009,-0.123244 0.06782,-0.303017 -0.267315,-0.157993 0.105261,-0.292129 -0.245405,-0.19025 0.141044,-0.276632 -0.219625,-0.219508 0.174604,-0.256773 -0.190382,-0.245303 0.205409,-0.232865 -0.158137,-0.26723 0.232976,-0.205284 -0.123397,-0.284942 0.256867,-0.174466 -0.08671,-0.298161 0.276708,-0.140896 -0.04866,-0.306678 0.292185,-0.105105 -0.0098,-0.310358 0.303054,-0.06766 0.02914,-0.309144 0.309143,-0.02914 0.06766,-0.303054 0.310358,0.0098 0.105104,-0.292185 0.306678,0.04866 0.140896,-0.276708 0.298162,0.08671 0.174465,-0.256867 0.284943,0.123397 0.205284,-0.232975 0.26723,0.158136 0.232865,-0.205409 0.245303,0.190382 0.256773,-0.174604 0.219508,0.219626 0.276632,-0.141045 0.19025,0.245406 0.292128,-0.105262 0.157993,0.267315 0.303018,-0.06782 0.123243,0.285009 0.309128,-0.02931 0.08655,0.298208 0.310363,0.0097 0.04849,0.306704 0.306704,0.04849 0.0097,0.310363 0.298208,0.08655 -0.02931,0.309128 0.285009,0.123243 -0.06782,0.303018 0.267315,0.157992 -0.105262,0.292129 0.245406,0.19025 -0.141045,0.276632 0.219626,0.219508 -0.174604,0.256773 0.190382,0.245303 -0.205409,0.232865 0.158136,0.26723 -0.232975,0.205284 0.123396,0.284943 -0.256867,0.174465 0.08671,0.298162 -0.276708,0.140896 0.04866,0.306678 -0.292185,0.105104 0.0098,0.310358 -0.303054,0.06766 z" />
            <circle
               cx="53.170563"
               cy="87.08757"
               r="2.375"
               id="circle1146"
               style="fill:#000000;stroke:#000000;stroke-width:1.25" />
          </g>
        </g>
        <g
           id="g1162"
           transform="translate(67.310531,-16.483823)">
          <rect
             style="display:inline;opacity:0.313971;fill:none;stroke:#767676;stroke-width:0.265;stroke-linecap:square;stroke-miterlimit:4;stroke-dasharray:none;stroke-opacity:1"
             id="rect1152"
             width="8.7350006"
             height="10.735"
             x="69.089592"
             y="11.107301"
             transform="rotate(90)" />
          <rect
             style="display:inline;opacity:0.313971;fill:none;stroke:#767676;stroke-width:0.264999;stroke-linecap:square;stroke-miterlimit:4;stroke-dasharray:none;stroke-opacity:1"
             id="rect1154"
             width="0.73500103"
             height="0.73500001"
             x="73.089592"
             y="6.8826051"
             transform="rotate(90)"
             ry="4.3674998"
             rx="4.3675003" />
          <g
             id="g1160"
             transform="translate(-69.645363,-13.630478)">
            <path
               sodipodi:type="star"
               sodipodi:cx="53.170563"
               sodipodi:cy="87.08757"
               sodipodi:arg1="0.78539816"
               sodipodi:arg2="0.84823001"
               inkscape:rounded="0"
               sodipodi:sides="50"
               sodipodi:r1="4"
               sodipodi:r2="3.8095238"
               style="fill:#1a5fb4;stroke:#000000;stroke-width:0.1"
               id="path1156"
               inkscape:flatsided="false"
               inkscape:randomized="0"
               d="m 55.99899,89.915997 -0.309144,0.02914 -0.06766,0.303054 -0.310358,-0.0098 -0.105105,0.292185 -0.306678,-0.04866 -0.140896,0.276708 -0.298161,-0.08671 -0.174466,0.256867 -0.284942,-0.123397 -0.205284,0.232976 -0.26723,-0.158137 -0.232865,0.205409 -0.245303,-0.190382 -0.256773,0.174604 -0.219508,-0.219626 -0.276632,0.141045 -0.19025,-0.245405 -0.292129,0.105261 -0.157993,-0.267315 -0.303017,0.06782 -0.123244,-0.285009 -0.309128,0.02931 -0.08655,-0.298207 -0.310364,-0.0097 -0.04849,-0.306704 -0.306705,-0.04849 -0.0097,-0.310364 -0.298208,-0.08655 0.02931,-0.309128 -0.285009,-0.123244 0.06782,-0.303017 -0.267315,-0.157993 0.105261,-0.292129 -0.245405,-0.19025 0.141044,-0.276632 -0.219625,-0.219508 0.174604,-0.256773 -0.190382,-0.245303 0.205409,-0.232865 -0.158137,-0.26723 0.232976,-0.205284 -0.123397,-0.284942 0.256867,-0.174466 -0.08671,-0.298161 0.276708,-0.140896 -0.04866,-0.306678 0.292185,-0.105105 -0.0098,-0.310358 0.303054,-0.06766 0.02914,-0.309144 0.309143,-0.02914 0.06766,-0.303054 0.310358,0.0098 0.105104,-0.292185 0.306678,0.04866 0.140896,-0.276708 0.298162,0.08671 0.174465,-0.256867 0.284943,0.123397 0.205284,-0.232975 0.26723,0.158136 0.232865,-0.205409 0.245303,0.190382 0.256773,-0.174604 0.219508,0.219626 0.276632,-0.141045 0.19025,0.245406 0.292128,-0.105262 0.157993,0.267315 0.303018,-0.06782 0.123243,0.285009 0.309128,-0.02931 0.08655,0.298208 0.310363,0.0097 0.04849,0.306704 0.306704,0.04849 0.0097,0.310363 0.298208,0.08655 -0.02931,0.309128 0.285009,0.123243 -0.06782,0.303018 0.267315,0.157992 -0.105262,0.292129 0.245406,0.19025 -0.141045,0.276632 0.219626,0.219508 -0.174604,0.256773 0.190382,0.245303 -0.205409,0.232865 0.158136,0.26723 -0.232975,0.205284 0.123396,0.284943 -0.256867,0.174465 0.08671,0.298162 -0.276708,0.140896 0.04866,0.306678 -0.292185,0.105104 0.0098,0.310358 -0.303054,0.06766 z" />
            <circle
               cx="53.170563"
               cy="87.08757"
               r="2.375"
               id="circle1158"
               style="fill:#000000;stroke:#000000;stroke-width:1.25" />
          </g>
        </g>
        <g
           id="g1174"
           transform="translate(67.533016,-1.9303673)">
          <rect
             style="display:inline;opacity:0.313971;fill:none;stroke:#767676;stroke-width:0.265;stroke-linecap:square;stroke-miterlimit:4;stroke-dasharray:none;stroke-opacity:1"
             id="rect1164"
             width="8.7350006"
             height="10.735"
             x="69.089592"
             y="11.107301"
             transform="rotate(90)" />
          <rect
             style="display:inline;opacity:0.313971;fill:none;stroke:#767676;stroke-width:0.264999;stroke-linecap:square;stroke-miterlimit:4;stroke-dasharray:none;stroke-opacity:1"
             id="rect1166"
             width="0.73500103"
             height="0.73500001"
             x="73.089592"
             y="6.8826051"
             transform="rotate(90)"
             ry="4.3674998"
             rx="4.3675003" />
          <g
             id="g1172"
             transform="translate(-69.645363,-13.630478)">
            <path
               sodipodi:type="star"
               sodipodi:cx="53.170563"
               sodipodi:cy="87.08757"
               sodipodi:arg1="0.78539816"
               sodipodi:arg2="0.84823001"
               inkscape:rounded="0"
               sodipodi:sides="50"
               sodipodi:r1="4"
               sodipodi:r2="3.8095238"
               style="fill:#1a5fb4;stroke:#000000;stroke-width:0.1"
               id="path1168"
               inkscape:flatsided="false"
               inkscape:randomized="0"
               d="m 55.99899,89.915997 -0.309144,0.02914 -0.06766,0.303054 -0.310358,-0.0098 -0.105105,0.292185 -0.306678,-0.04866 -0.140896,0.276708 -0.298161,-0.08671 -0.174466,0.256867 -0.284942,-0.123397 -0.205284,0.232976 -0.26723,-0.158137 -0.232865,0.205409 -0.245303,-0.190382 -0.256773,0.174604 -0.219508,-0.219626 -0.276632,0.141045 -0.19025,-0.245405 -0.292129,0.105261 -0.157993,-0.267315 -0.303017,0.06782 -0.123244,-0.285009 -0.309128,0.02931 -0.08655,-0.298207 -0.310364,-0.0097 -0.04849,-0.306704 -0.306705,-0.04849 -0.0097,-0.310364 -0.298208,-0.08655 0.02931,-0.309128 -0.285009,-0.123244 0.06782,-0.303017 -0.267315,-0.157993 0.105261,-0.292129 -0.245405,-0.19025 0.141044,-0.276632 -0.219625,-0.219508 0.174604,-0.256773 -0.190382,-0.245303 0.205409,-0.232865 -0.158137,-0.26723 0.232976,-0.205284 -0.123397,-0.284942 0.256867,-0.174466 -0.08671,-0.298161 0.276708,-0.140896 -0.04866,-0.306678 0.292185,-0.105105 -0.0098,-0.310358 0.303054,-0.06766 0.02914,-0.309144 0.309143,-0.02914 0.06766,-0.303054 0.310358,0.0098 0.105104,-0.292185 0.306678,0.04866 0.140896,-0.276708 0.298162,0.08671 0.174465,-0.256867 0.284943,0.123397 0.205284,-0.232975 0.26723,0.158136 0.232865,-0.205409 0.245303,0.190382 0.256773,-0.174604 0.219508,0.219626 0.276632,-0.141045 0.19025,0.245406 0.292128,-0.105262 0.157993,0.267315 0.303018,-0.06782 0.123243,0.285009 0.309128,-0.02931 0.08655,0.298208 0.310363,0.0097 0.04849,0.306704 0.306704,0.04849 0.0097,0.310363 0.298208,0.08655 -0.02931,0.309128 0.285009,0.123243 -0.06782,0.303018 0.267315,0.157992 -0.105262,0.292129 0.245406,0.19025 -0.141045,0.276632 0.219626,0.219508 -0.174604,0.256773 0.190382,0.245303 -0.205409,0.232865 0.158136,0.26723 -0.232975,0.205284 0.123396,0.284943 -0.256867,0.174465 0.08671,0.298162 -0.276708,0.140896 0.04866,0.306678 -0.292185,0.105104 0.0098,0.310358 -0.303054,0.06766 z" />
            <circle
               cx="53.170563"
               cy="87.08757"
               r="2.375"
               id="circle1170"
               style="fill:#000000;stroke:#000000;stroke-width:1.25" />
          </g>
        </g>
        <g
           id="g1186"
           transform="translate(67.533016,12.623097)">
          <rect
             style="display:inline;opacity:0.313971;fill:none;stroke:#767676;stroke-width:0.265;stroke-linecap:square;stroke-miterlimit:4;stroke-dasharray:none;stroke-opacity:1"
             id="rect1176"
             width="8.7350006"
             height="10.735"
             x="69.089592"
             y="11.107301"
             transform="rotate(90)" />
          <rect
             style="display:inline;opacity:0.313971;fill:none;stroke:#767676;stroke-width:0.264999;stroke-linecap:square;stroke-miterlimit:4;stroke-dasharray:none;stroke-opacity:1"
             id="rect1178"
             width="0.73500103"
             height="0.73500001"
             x="73.089592"
             y="6.8826051"
             transform="rotate(90)"
             ry="4.3674998"
             rx="4.3675003" />
          <g
             id="g1184"
             transform="translate(-69.645363,-13.630478)">
            <path
               sodipodi:type="star"
               sodipodi:cx="53.170563"
               sodipodi:cy="87.08757"
               sodipodi:arg1="0.78539816"
               sodipodi:arg2="0.84823001"
               inkscape:rounded="0"
               sodipodi:sides="50"
               sodipodi:r1="4"
               sodipodi:r2="3.8095238"
               style="fill:#1a5fb4;stroke:#000000;stroke-width:0.1"
               id="path1180"
               inkscape:flatsided="false"
               inkscape:randomized="0"
               d="m 55.99899,89.915997 -0.309144,0.02914 -0.06766,0.303054 -0.310358,-0.0098 -0.105105,0.292185 -0.306678,-0.04866 -0.140896,0.276708 -0.298161,-0.08671 -0.174466,0.256867 -0.284942,-0.123397 -0.205284,0.232976 -0.26723,-0.158137 -0.232865,0.205409 -0.245303,-0.190382 -0.256773,0.174604 -0.219508,-0.219626 -0.276632,0.141045 -0.19025,-0.245405 -0.292129,0.105261 -0.157993,-0.267315 -0.303017,0.06782 -0.123244,-0.285009 -0.309128,0.02931 -0.08655,-0.298207 -0.310364,-0.0097 -0.04849,-0.306704 -0.306705,-0.04849 -0.0097,-0.310364 -0.298208,-0.08655 0.02931,-0.309128 -0.285009,-0.123244 0.06782,-0.303017 -0.267315,-0.157993 0.105261,-0.292129 -0.245405,-0.19025 0.141044,-0.276632 -0.219625,-0.219508 0.174604,-0.256773 -0.190382,-0.245303 0.205409,-0.232865 -0.158137,-0.26723 0.232976,-0.205284 -0.123397,-0.284942 0.256867,-0.174466 -0.08671,-0.298161 0.276708,-0.140896 -0.04866,-0.306678 0.292185,-0.105105 -0.0098,-0.310358 0.303054,-0.06766 0.02914,-0.309144 0.309143,-0.02914 0.06766,-0.303054 0.310358,0.0098 0.105104,-0.292185 0.306678,0.04866 0.140896,-0.276708 0.298162,0.08671 0.174465,-0.256867 0.284943,0.123397 0.205284,-0.232975 0.26723,0.158136 0.232865,-0.205409 0.245303,0.190382 0.256773,-0.174604 0.219508,0.219626 0.276632,-0.141045 0.19025,0.245406 0.292128,-0.105262 0.157993,0.267315 0.303018,-0.06782 0.123243,0.285009 0.309128,-0.02931 0.08655,0.298208 0.310363,0.0097 0.04849,0.306704 0.306704,0.04849 0.0097,0.310363 0.298208,0.08655 -0.02931,0.309128 0.285009,0.123243 -0.06782,0.303018 0.267315,0.157992 -0.105262,0.292129 0.245406,0.19025 -0.141045,0.276632 0.219626,0.219508 -0.174604,0.256773 0.190382,0.245303 -0.205409,0.232865 0.158136,0.26723 -0.232975,0.205284 0.123396,0.284943 -0.256867,0.174465 0.08671,0.298162 -0.276708,0.140896 0.04866,0.306678 -0.292185,0.105104 0.0098,0.310358 -0.303054,0.06766 z" />
            <circle
               cx="53.170563"
               cy="87.08757"
               r="2.375"
               id="circle1182"
               style="fill:#000000;stroke:#000000;stroke-width:1.25" />
          </g>
        </g>
        <g
           id="g1198"
           transform="translate(67.137428,27.176561)">
          <rect
             style="display:inline;opacity:0.313971;fill:none;stroke:#767676;stroke-width:0.265;stroke-linecap:square;stroke-miterlimit:4;stroke-dasharray:none;stroke-opacity:1"
             id="rect1188"
             width="8.7350006"
             height="10.735"
             x="69.089592"
             y="11.107301"
             transform="rotate(90)" />
          <rect
             style="display:inline;opacity:0.313971;fill:none;stroke:#767676;stroke-width:0.264999;stroke-linecap:square;stroke-miterlimit:4;stroke-dasharray:none;stroke-opacity:1"
             id="rect1190"
             width="0.73500103"
             height="0.73500001"
             x="73.089592"
             y="6.8826051"
             transform="rotate(90)"
             ry="4.3674998"
             rx="4.3675003" />
          <g
             id="g1196"
             transform="translate(-69.645363,-13.630478)">
            <path
               sodipodi:type="star"
               sodipodi:cx="53.170563"
               sodipodi:cy="87.08757"
               sodipodi:arg1="0.78539816"
               sodipodi:arg2="0.84823001"
               inkscape:rounded="0"
               sodipodi:sides="50"
               sodipodi:r1="4"
               sodipodi:r2="3.8095238"
               style="fill:#1a5fb4;stroke:#000000;stroke-width:0.1"
               id="path1192"
               inkscape:flatsided="false"
               inkscape:randomized="0"
               d="m 55.99899,89.915997 -0.309144,0.02914 -0.06766,0.303054 -0.310358,-0.0098 -0.105105,0.292185 -0.306678,-0.04866 -0.140896,0.276708 -0.298161,-0.08671 -0.174466,0.256867 -0.284942,-0.123397 -0.205284,0.232976 -0.26723,-0.158137 -0.232865,0.205409 -0.245303,-0.190382 -0.256773,0.174604 -0.219508,-0.219626 -0.276632,0.141045 -0.19025,-0.245405 -0.292129,0.105261 -0.157993,-0.267315 -0.303017,0.06782 -0.123244,-0.285009 -0.309128,0.02931 -0.08655,-0.298207 -0.310364,-0.0097 -0.04849,-0.306704 -0.306705,-0.04849 -0.0097,-0.310364 -0.298208,-0.08655 0.02931,-0.309128 -0.285009,-0.123244 0.06782,-0.303017 -0.267315,-0.157993 0.105261,-0.292129 -0.245405,-0.19025 0.141044,-0.276632 -0.219625,-0.219508 0.174604,-0.256773 -0.190382,-0.245303 0.205409,-0.232865 -0.158137,-0.26723 0.232976,-0.205284 -0.123397,-0.284942 0.256867,-0.174466 -0.08671,-0.298161 0.276708,-0.140896 -0.04866,-0.306678 0.292185,-0.105105 -0.0098,-0.310358 0.303054,-0.06766 0.02914,-0.309144 0.309143,-0.02914 0.06766,-0.303054 0.310358,0.0098 0.105104,-0.292185 0.306678,0.04866 0.140896,-0.276708 0.298162,0.08671 0.174465,-0.256867 0.284943,0.123397 0.205284,-0.232975 0.26723,0.158136 0.232865,-0.205409 0.245303,0.190382 0.256773,-0.174604 0.219508,0.219626 0.276632,-0.141045 0.19025,0.245406 0.292128,-0.105262 0.157993,0.267315 0.303018,-0.06782 0.123243,0.285009 0.309128,-0.02931 0.08655,0.298208 0.310363,0.0097 0.04849,0.306704 0.306704,0.04849 0.0097,0.310363 0.298208,0.08655 -0.02931,0.309128 0.285009,0.123243 -0.06782,0.303018 0.267315,0.157992 -0.105262,0.292129 0.245406,0.19025 -0.141045,0.276632 0.219626,0.219508 -0.174604,0.256773 0.190382,0.245303 -0.205409,0.232865 0.158136,0.26723 -0.232975,0.205284 0.123396,0.284943 -0.256867,0.174465 0.08671,0.298162 -0.276708,0.140896 0.04866,0.306678 -0.292185,0.105104 0.0098,0.310358 -0.303054,0.06766 z" />
            <circle
               cx="53.170563"
               cy="87.08757"
               r="2.375"
               id="circle1194"
               style="fill:#000000;stroke:#000000;stroke-width:1.25" />
          </g>
        </g>
        <g
           id="g1210"
           transform="translate(67.137428,41.730025)">
          <rect
             style="display:inline;opacity:0.313971;fill:none;stroke:#767676;stroke-width:0.265;stroke-linecap:square;stroke-miterlimit:4;stroke-dasharray:none;stroke-opacity:1"
             id="rect1200"
             width="8.7350006"
             height="10.735"
             x="69.089592"
             y="11.107301"
             transform="rotate(90)" />
          <rect
             style="display:inline;opacity:0.313971;fill:none;stroke:#767676;stroke-width:0.264999;stroke-linecap:square;stroke-miterlimit:4;stroke-dasharray:none;stroke-opacity:1"
             id="rect1202"
             width="0.73500103"
             height="0.73500001"
             x="73.089592"
             y="6.8826051"
             transform="rotate(90)"
             ry="4.3674998"
             rx="4.3675003" />
          <g
             id="g1208"
             transform="translate(-69.645363,-13.630478)">
            <path
               sodipodi:type="star"
               sodipodi:cx="53.170563"
               sodipodi:cy="87.08757"
               sodipodi:arg1="0.78539816"
               sodipodi:arg2="0.84823001"
               inkscape:rounded="0"
               sodipodi:sides="50"
               sodipodi:r1="4"
               sodipodi:r2="3.8095238"
               style="fill:#1a5fb4;stroke:#000000;stroke-width:0.1"
               id="path1204"
               inkscape:flatsided="false"
               inkscape:randomized="0"
               d="m 55.99899,89.915997 -0.309144,0.02914 -0.06766,0.303054 -0.310358,-0.0098 -0.105105,0.292185 -0.306678,-0.04866 -0.140896,0.276708 -0.298161,-0.08671 -0.174466,0.256867 -0.284942,-0.123397 -0.205284,0.232976 -0.26723,-0.158137 -0.232865,0.205409 -0.245303,-0.190382 -0.256773,0.174604 -0.219508,-0.219626 -0.276632,0.141045 -0.19025,-0.245405 -0.292129,0.105261 -0.157993,-0.267315 -0.303017,0.06782 -0.123244,-0.285009 -0.309128,0.02931 -0.08655,-0.298207 -0.310364,-0.0097 -0.04849,-0.306704 -0.306705,-0.04849 -0.0097,-0.310364 -0.298208,-0.08655 0.02931,-0.309128 -0.285009,-0.123244 0.06782,-0.303017 -0.267315,-0.157993 0.105261,-0.292129 -0.245405,-0.19025 0.141044,-0.276632 -0.219625,-0.219508 0.174604,-0.256773 -0.190382,-0.245303 0.205409,-0.232865 -0.158137,-0.26723 0.232976,-0.205284 -0.123397,-0.284942 0.256867,-0.174466 -0.08671,-0.298161 0.276708,-0.140896 -0.04866,-0.306678 0.292185,-0.105105 -0.0098,-0.310358 0.303054,-0.06766 0.02914,-0.309144 0.309143,-0.02914 0.06766,-0.303054 0.310358,0.0098 0.105104,-0.292185 0.306678,0.04866 0.140896,-0.276708 0.298162,0.08671 0.174465,-0.256867 0.284943,0.123397 0.205284,-0.232975 0.26723,0.158136 0.232865,-0.205409 0.245303,0.190382 0.256773,-0.174604 0.219508,0.219626 0.276632,-0.141045 0.19025,0.245406 0.292128,-0.105262 0.157993,0.267315 0.303018,-0.06782 0.123243,0.285009 0.309128,-0.02931 0.08655,0.298208 0.310363,0.0097 0.04849,0.306704 0.306704,0.04849 0.0097,0.310363 0.298208,0.08655 -0.02931,0.309128 0.285009,0.123243 -0.06782,0.303018 0.267315,0.157992 -0.105262,0.292129 0.245406,0.19025 -0.141045,0.276632 0.219626,0.219508 -0.174604,0.256773 0.190382,0.245303 -0.205409,0.232865 0.158136,0.26723 -0.232975,0.205284 0.123396,0.284943 -0.256867,0.174465 0.08671,0.298162 -0.276708,0.140896 0.04866,0.306678 -0.292185,0.105104 0.0098,0.310358 -0.303054,0.06766 z" />
            <circle
               cx="53.170563"
               cy="87.08757"
               r="2.375"
               id="circle1206"
               style="fill:#000000;stroke:#000000;stroke-width:1.25" />
          </g>
        </g>
        <g
           id="g1253"
           transform="translate(2.1166675,1.6309136)">
          <rect
             style="display:inline;opacity:0.313971;fill:none;stroke:#767676;stroke-width:0.265;stroke-linecap:square;stroke-miterlimit:4;stroke-dasharray:none;stroke-opacity:1"
             id="rect1230"
             width="8.7350006"
             height="10.735"
             x="101.75564"
             y="-15.873686"
             transform="rotate(90)" />
          <rect
             style="display:inline;opacity:0.313971;fill:none;stroke:#767676;stroke-width:0.264999;stroke-linecap:square;stroke-miterlimit:4;stroke-dasharray:none;stroke-opacity:1"
             id="rect1232"
             width="0.73500103"
             height="0.73500001"
             x="105.75564"
             y="-20.098381"
             transform="rotate(90)"
             ry="4.3674998"
             rx="4.3675003" />
          <path
             sodipodi:type="star"
             sodipodi:cx="10.506187"
             sodipodi:cy="106.12314"
             sodipodi:arg1="0.78539816"
             sodipodi:arg2="0.84823001"
             inkscape:rounded="0"
             sodipodi:sides="50"
             sodipodi:r1="4"
             sodipodi:r2="3.8095238"
             style="fill:#1a5fb4;stroke:#000000;stroke-width:0.1"
             id="path1234"
             inkscape:flatsided="false"
             inkscape:randomized="0"
             d="m 13.334615,108.95157 -0.309144,0.0291 -0.06766,0.30306 -0.310359,-0.01 -0.105104,0.29219 -0.306678,-0.0487 -0.140896,0.27671 -0.298161,-0.0867 -0.174466,0.25686 -0.284943,-0.12339 -0.205284,0.23297 -0.26723,-0.15813 -0.232865,0.2054 -0.245303,-0.19038 -0.256773,0.17461 -0.2195074,-0.21963 -0.2766321,0.14105 -0.1902503,-0.24541 -0.2921284,0.10526 -0.1579927,-0.26731 -0.3030176,0.0678 -0.1232434,-0.285 -0.3091282,0.0293 -0.086551,-0.29821 -0.3103634,-0.01 -0.048493,-0.3067 -0.3067041,-0.0485 -0.00967,-0.31037 -0.298208,-0.0866 0.029305,-0.30913 -0.2850089,-0.12324 0.067818,-0.30302 -0.2673149,-0.15799 0.1052614,-0.29213 -0.2454054,-0.19025 0.1410448,-0.27663 -0.2196256,-0.21951 0.1746038,-0.25677 -0.1903822,-0.2453 0.2054092,-0.23287 -0.1581363,-0.26723 0.2329752,-0.20528 -0.1233966,-0.28495 0.256867,-0.17446 -0.086711,-0.29816 0.2767079,-0.1409 -0.048658,-0.30668 0.292185,-0.1051 -0.00984,-0.31036 0.303054,-0.0677 0.029139,-0.30915 0.3091438,-0.0291 0.067655,-0.30305 0.3103582,0.01 0.1051044,-0.29219 0.306678,0.0487 0.1408961,-0.27671 0.2981613,0.0867 0.1744658,-0.25687 0.2849425,0.1234 0.2052841,-0.23297 0.2672304,0.15813 0.232864,-0.20541 0.245303,0.19038 0.256774,-0.1746 0.219507,0.21963 0.276632,-0.14105 0.190251,0.24541 0.292128,-0.10526 0.157993,0.26731 0.303017,-0.0678 0.123244,0.28501 0.309128,-0.0293 0.08655,0.2982 0.310364,0.01 0.04849,0.30671 0.306704,0.0485 0.0097,0.31036 0.298208,0.0865 -0.02931,0.30913 0.285009,0.12325 -0.06782,0.30301 0.267315,0.158 -0.105262,0.29213 0.245405,0.19025 -0.141044,0.27663 0.219625,0.21951 -0.174604,0.25677 0.190383,0.2453 -0.20541,0.23287 0.158137,0.26723 -0.232975,0.20528 0.123396,0.28494 -0.256867,0.17447 0.08671,0.29816 -0.276708,0.1409 0.04866,0.30667 -0.292185,0.10511 0.0098,0.31036 -0.303054,0.0677 z" />
          <circle
             cx="10.506186"
             cy="106.12314"
             r="2.375"
             id="circle1236"
             style="fill:#000000;stroke:#000000;stroke-width:1.25" />
        </g>
      </g>
    </g>
  </g>
</svg>
