<?xml version="1.0" encoding="UTF-8" standalone="no"?>
<svg
   xmlns:dc="http://purl.org/dc/elements/1.1/"
   xmlns:cc="http://creativecommons.org/ns#"
   xmlns:rdf="http://www.w3.org/1999/02/22-rdf-syntax-ns#"
   xmlns:svg="http://www.w3.org/2000/svg"
   xmlns="http://www.w3.org/2000/svg"
   xmlns:xlink="http://www.w3.org/1999/xlink"
   xmlns:sodipodi="http://sodipodi.sourceforge.net/DTD/sodipodi-0.dtd"
   xmlns:inkscape="http://www.inkscape.org/namespaces/inkscape"
   sodipodi:docname="concept4.svg"
   id="svg1308"
   version="1.1"
   viewBox="0 0 60.600001 128.5"
   height="128.5mm"
   width="60.600002mm"
   inkscape:version="1.0.2 (e86c870879, 2021-01-15)"
   inkscape:export-filename="/home/tux/moPsy/Modules/manual-gate-trigger-source/Frontpanel/concept3.png"
   inkscape:export-xdpi="96"
   inkscape:export-ydpi="96">
  <defs
     id="defs1302">
    <linearGradient
       inkscape:collect="always"
       id="linearGradient971">
      <stop
         style="stop-color:#ff7474;stop-opacity:1;"
         offset="0"
         id="stop967" />
      <stop
         style="stop-color:#ff7474;stop-opacity:0;"
         offset="1"
         id="stop969" />
    </linearGradient>
    <radialGradient
       inkscape:collect="always"
       xlink:href="#linearGradient971"
       id="radialGradient973"
       cx="42.938686"
       cy="23.0263"
       fx="42.938686"
       fy="23.0263"
       r="1.9755"
       gradientUnits="userSpaceOnUse"
       gradientTransform="matrix(0.50620097,0,0,0.50620099,21.20308,11.370364)" />
    <radialGradient
       inkscape:collect="always"
       xlink:href="#linearGradient971"
       id="radialGradient975"
       cx="42.938686"
       cy="51.418545"
       fx="42.938686"
       fy="51.418545"
       r="1.9755"
       gradientUnits="userSpaceOnUse"
       gradientTransform="matrix(0.50620097,0,0,0.50620099,21.20308,25.390429)" />
    <radialGradient
       inkscape:collect="always"
       xlink:href="#linearGradient971"
       id="radialGradient977"
       cx="42.938686"
       cy="79.810791"
       fx="42.938686"
       fy="79.810791"
       r="1.9755"
       gradientUnits="userSpaceOnUse"
       gradientTransform="matrix(0.50620097,0,0,0.50620099,21.20308,39.410495)" />
    <radialGradient
       inkscape:collect="always"
       xlink:href="#linearGradient971"
       id="radialGradient979"
       cx="42.938686"
       cy="108.20305"
       fx="42.938686"
       fy="108.20305"
       r="1.9755"
       gradientUnits="userSpaceOnUse"
       gradientTransform="matrix(0.50620097,0,0,0.50620099,21.20308,53.430556)" />
  </defs>
  <sodipodi:namedview
     id="base"
     pagecolor="#ffffff"
     bordercolor="#666666"
     borderopacity="1.0"
     inkscape:pageopacity="0.0"
     inkscape:pageshadow="2"
     inkscape:zoom="2.0000001"
     inkscape:cx="-150.11316"
     inkscape:cy="230.77806"
     inkscape:document-units="mm"
     inkscape:current-layer="g1185"
     inkscape:document-rotation="0"
     showgrid="false"
     inkscape:pagecheckerboard="true"
     inkscape:window-width="1920"
     inkscape:window-height="1007"
     inkscape:window-x="0"
     inkscape:window-y="0"
     inkscape:window-maximized="1"
     showguides="false"
     fit-margin-top="0"
     fit-margin-left="0"
     fit-margin-right="0"
     fit-margin-bottom="0"
     units="mm">
    <sodipodi:guide
       position="-24.310215,101.94088"
       orientation="1,0"
       id="guide1031" />
  </sodipodi:namedview>
  <metadata
     id="metadata1305">
    <rdf:RDF>
      <cc:Work
         rdf:about="">
        <dc:format>image/svg+xml</dc:format>
        <dc:type
           rdf:resource="http://purl.org/dc/dcmitype/StillImage" />
        <dc:title />
      </cc:Work>
    </rdf:RDF>
  </metadata>
  <g
     inkscape:groupmode="layer"
     id="layer4"
     inkscape:label="Parameter Board"
     style="display:inline"
     transform="translate(-0.24711443,0.127115)" />
  <g
     inkscape:groupmode="layer"
     inkscape:label="Main color"
     id="g3599"
     style="opacity:0.313971"
     transform="translate(-0.24711443,0.127115)" />
  <g
     inkscape:label="Layer 1"
     inkscape:groupmode="layer"
     id="layer1"
     transform="translate(-0.24711443,0.127115)" />
  <g
     inkscape:label="Panel"
     id="g1317"
     sodipodi:insensitive="true"
     style="display:none"
     transform="translate(-0.24711443,0.127115)">
    <g
       inkscape:groupmode="layer"
       inkscape:label="Panel"
       id="panel"
       style="display:none">
      <rect
         x="0"
         y="0"
         width="60.720001"
         height="128.5"
         rx="0"
         ry="0"
         style="fill:#ffffff;stroke:none;stroke-width:0mm"
         id="rect1314" />
    </g>
  </g>
  <g
     inkscape:label="Panel"
     id="g1334"
     sodipodi:insensitive="true"
     style="display:none"
     transform="translate(-0.24711443,0.127115)">
    <g
       inkscape:groupmode="layer"
       inkscape:label="Panel"
       id="g1332"
       style="display:none">
      <rect
         x="0"
         y="0"
         width="60.720001"
         height="128.5"
         rx="0"
         ry="0"
         style="fill:#ffffff;stroke:none;stroke-width:0mm"
         id="rect1330" />
    </g>
  </g>
  <g
     inkscape:groupmode="layer"
     inkscape:label="Jacks Group"
     id="jacks-group"
     style="display:inline"
     transform="translate(-0.24711443,0.127115)">
    <g
       inkscape:groupmode="layer"
       inkscape:label="Man Input"
       id="g1485">
      <g
         inkscape:groupmode="layer"
         inkscape:label="Nut skirt"
         id="g1476" />
      <g
         inkscape:groupmode="layer"
         inkscape:label="Nut"
         id="g1480" />
      <g
         inkscape:groupmode="layer"
         inkscape:label="Main color"
         id="g1483" />
    </g>
    <g
       inkscape:groupmode="layer"
       inkscape:label="Man Input"
       id="g1522">
      <g
         inkscape:groupmode="layer"
         inkscape:label="Nut skirt"
         id="g1512" />
      <g
         inkscape:groupmode="layer"
         inkscape:label="Nut"
         id="g1516" />
      <g
         inkscape:groupmode="layer"
         inkscape:label="Main color"
         id="g1520" />
    </g>
    <g
       inkscape:groupmode="layer"
       inkscape:label="Man Input"
       id="g3150">
      <g
         inkscape:groupmode="layer"
         inkscape:label="Nut skirt"
         id="g3137" />
      <g
         inkscape:groupmode="layer"
         inkscape:label="Nut"
         id="g3141" />
      <g
         inkscape:groupmode="layer"
         inkscape:label="Main color"
         id="g3144" />
      <g
         inkscape:groupmode="layer"
         inkscape:label="Centering circle"
         id="g3148" />
    </g>
  </g>
  <g
     inkscape:groupmode="layer"
     id="layer2"
     inkscape:label="Courtyards"
     style="display:inline"
     transform="translate(-0.24711443,0.127115)" />
  <g
     inkscape:groupmode="layer"
     id="layer3"
     inkscape:label="Outlines"
     style="display:inline;opacity:1"
     transform="translate(-0.24711443,0.127115)">
    <g
       id="g1089"
       transform="rotate(-90,48.537747,46.236851)">
      <rect
         style="display:inline;opacity:0.313971;fill:none;stroke:#767676;stroke-width:0.265;stroke-linecap:square;stroke-miterlimit:4;stroke-dasharray:none;stroke-opacity:1"
         id="rect1085"
         width="6.7350001"
         height="12.735"
         x="-24.072683"
         y="4.2568231" />
      <circle
         cx="-20.705183"
         cy="10.624323"
         id="circle1087"
         style="opacity:0.313971;fill:#000000;stroke:#ffffff;stroke-width:0.5"
         r="2.75" />
    </g>
    <g
       id="g1139"
       transform="translate(0,1.7220053)">
      <g
         id="g1150"
         transform="translate(67.310531,-31.037279)"
         style="opacity:0.313971">
        <rect
           style="display:inline;opacity:0.313971;fill:none;stroke:#767676;stroke-width:0.265;stroke-linecap:square;stroke-miterlimit:4;stroke-dasharray:none;stroke-opacity:1"
           id="rect1140"
           width="8.7350006"
           height="10.735"
           x="69.089592"
           y="11.107301"
           transform="rotate(90)" />
        <rect
           style="display:inline;opacity:0.313971;fill:none;stroke:#767676;stroke-width:0.264999;stroke-linecap:square;stroke-miterlimit:4;stroke-dasharray:none;stroke-opacity:1"
           id="rect1142"
           width="0.73500103"
           height="0.73500001"
           x="73.089592"
           y="6.8826051"
           transform="rotate(90)"
           ry="4.3674998"
           rx="4.3675003" />
        <g
           id="g1148"
           transform="translate(-69.645363,-13.630478)">
          <path
             sodipodi:type="star"
             sodipodi:cx="53.170563"
             sodipodi:cy="87.08757"
             sodipodi:arg1="0.78539816"
             sodipodi:arg2="0.84823001"
             inkscape:rounded="0"
             sodipodi:sides="50"
             sodipodi:r1="4"
             sodipodi:r2="3.8095238"
             style="fill:#1a5fb4;stroke:#000000;stroke-width:0.1"
             id="path1144"
             inkscape:flatsided="false"
             inkscape:randomized="0"
             d="m 55.99899,89.915997 -0.309144,0.02914 -0.06766,0.303054 -0.310358,-0.0098 -0.105105,0.292185 -0.306678,-0.04866 -0.140896,0.276708 -0.298161,-0.08671 -0.174466,0.256867 -0.284942,-0.123397 -0.205284,0.232976 -0.26723,-0.158137 -0.232865,0.205409 -0.245303,-0.190382 -0.256773,0.174604 -0.219508,-0.219626 -0.276632,0.141045 -0.19025,-0.245405 -0.292129,0.105261 -0.157993,-0.267315 -0.303017,0.06782 -0.123244,-0.285009 -0.309128,0.02931 -0.08655,-0.298207 -0.310364,-0.0097 -0.04849,-0.306704 -0.306705,-0.04849 -0.0097,-0.310364 -0.298208,-0.08655 0.02931,-0.309128 -0.285009,-0.123244 0.06782,-0.303017 -0.267315,-0.157993 0.105261,-0.292129 -0.245405,-0.19025 0.141044,-0.276632 -0.219625,-0.219508 0.174604,-0.256773 -0.190382,-0.245303 0.205409,-0.232865 -0.158137,-0.26723 0.232976,-0.205284 -0.123397,-0.284942 0.256867,-0.174466 -0.08671,-0.298161 0.276708,-0.140896 -0.04866,-0.306678 0.292185,-0.105105 -0.0098,-0.310358 0.303054,-0.06766 0.02914,-0.309144 0.309143,-0.02914 0.06766,-0.303054 0.310358,0.0098 0.105104,-0.292185 0.306678,0.04866 0.140896,-0.276708 0.298162,0.08671 0.174465,-0.256867 0.284943,0.123397 0.205284,-0.232975 0.26723,0.158136 0.232865,-0.205409 0.245303,0.190382 0.256773,-0.174604 0.219508,0.219626 0.276632,-0.141045 0.19025,0.245406 0.292128,-0.105262 0.157993,0.267315 0.303018,-0.06782 0.123243,0.285009 0.309128,-0.02931 0.08655,0.298208 0.310363,0.0097 0.04849,0.306704 0.306704,0.04849 0.0097,0.310363 0.298208,0.08655 -0.02931,0.309128 0.285009,0.123243 -0.06782,0.303018 0.267315,0.157992 -0.105262,0.292129 0.245406,0.19025 -0.141045,0.276632 0.219626,0.219508 -0.174604,0.256773 0.190382,0.245303 -0.205409,0.232865 0.158136,0.26723 -0.232975,0.205284 0.123396,0.284943 -0.256867,0.174465 0.08671,0.298162 -0.276708,0.140896 0.04866,0.306678 -0.292185,0.105104 0.0098,0.310358 -0.303054,0.06766 z" />
          <circle
             cx="53.170563"
             cy="87.08757"
             r="2.375"
             id="circle1146"
             style="fill:#000000;stroke:#000000;stroke-width:1.25" />
        </g>
      </g>
      <g
         id="g1162"
         transform="translate(67.310531,-16.483823)"
         style="opacity:0.313971">
        <rect
           style="display:inline;opacity:0.313971;fill:none;stroke:#767676;stroke-width:0.265;stroke-linecap:square;stroke-miterlimit:4;stroke-dasharray:none;stroke-opacity:1"
           id="rect1152"
           width="8.7350006"
           height="10.735"
           x="69.089592"
           y="11.107301"
           transform="rotate(90)" />
        <rect
           style="display:inline;opacity:0.313971;fill:none;stroke:#767676;stroke-width:0.264999;stroke-linecap:square;stroke-miterlimit:4;stroke-dasharray:none;stroke-opacity:1"
           id="rect1154"
           width="0.73500103"
           height="0.73500001"
           x="73.089592"
           y="6.8826051"
           transform="rotate(90)"
           ry="4.3674998"
           rx="4.3675003" />
        <g
           id="g1160"
           transform="translate(-69.645363,-13.630478)">
          <path
             sodipodi:type="star"
             sodipodi:cx="53.170563"
             sodipodi:cy="87.08757"
             sodipodi:arg1="0.78539816"
             sodipodi:arg2="0.84823001"
             inkscape:rounded="0"
             sodipodi:sides="50"
             sodipodi:r1="4"
             sodipodi:r2="3.8095238"
             style="fill:#1a5fb4;stroke:#000000;stroke-width:0.1"
             id="path1156"
             inkscape:flatsided="false"
             inkscape:randomized="0"
             d="m 55.99899,89.915997 -0.309144,0.02914 -0.06766,0.303054 -0.310358,-0.0098 -0.105105,0.292185 -0.306678,-0.04866 -0.140896,0.276708 -0.298161,-0.08671 -0.174466,0.256867 -0.284942,-0.123397 -0.205284,0.232976 -0.26723,-0.158137 -0.232865,0.205409 -0.245303,-0.190382 -0.256773,0.174604 -0.219508,-0.219626 -0.276632,0.141045 -0.19025,-0.245405 -0.292129,0.105261 -0.157993,-0.267315 -0.303017,0.06782 -0.123244,-0.285009 -0.309128,0.02931 -0.08655,-0.298207 -0.310364,-0.0097 -0.04849,-0.306704 -0.306705,-0.04849 -0.0097,-0.310364 -0.298208,-0.08655 0.02931,-0.309128 -0.285009,-0.123244 0.06782,-0.303017 -0.267315,-0.157993 0.105261,-0.292129 -0.245405,-0.19025 0.141044,-0.276632 -0.219625,-0.219508 0.174604,-0.256773 -0.190382,-0.245303 0.205409,-0.232865 -0.158137,-0.26723 0.232976,-0.205284 -0.123397,-0.284942 0.256867,-0.174466 -0.08671,-0.298161 0.276708,-0.140896 -0.04866,-0.306678 0.292185,-0.105105 -0.0098,-0.310358 0.303054,-0.06766 0.02914,-0.309144 0.309143,-0.02914 0.06766,-0.303054 0.310358,0.0098 0.105104,-0.292185 0.306678,0.04866 0.140896,-0.276708 0.298162,0.08671 0.174465,-0.256867 0.284943,0.123397 0.205284,-0.232975 0.26723,0.158136 0.232865,-0.205409 0.245303,0.190382 0.256773,-0.174604 0.219508,0.219626 0.276632,-0.141045 0.19025,0.245406 0.292128,-0.105262 0.157993,0.267315 0.303018,-0.06782 0.123243,0.285009 0.309128,-0.02931 0.08655,0.298208 0.310363,0.0097 0.04849,0.306704 0.306704,0.04849 0.0097,0.310363 0.298208,0.08655 -0.02931,0.309128 0.285009,0.123243 -0.06782,0.303018 0.267315,0.157992 -0.105262,0.292129 0.245406,0.19025 -0.141045,0.276632 0.219626,0.219508 -0.174604,0.256773 0.190382,0.245303 -0.205409,0.232865 0.158136,0.26723 -0.232975,0.205284 0.123396,0.284943 -0.256867,0.174465 0.08671,0.298162 -0.276708,0.140896 0.04866,0.306678 -0.292185,0.105104 0.0098,0.310358 -0.303054,0.06766 z" />
          <circle
             cx="53.170563"
             cy="87.08757"
             r="2.375"
             id="circle1158"
             style="fill:#000000;stroke:#000000;stroke-width:1.25" />
        </g>
      </g>
      <g
         id="g982"
         transform="translate(64.084816,22.423087)">
        <rect
           style="display:inline;opacity:0.313971;fill:none;stroke:#767676;stroke-width:0.265;stroke-linecap:square;stroke-miterlimit:4;stroke-dasharray:none;stroke-opacity:1"
           id="rect978"
           width="7.7350001"
           height="7.7350001"
           x="-32.906353"
           y="30.682684" />
        <circle
           style="opacity:1;fill:#000000;fill-opacity:0.0943718;stroke:#767676;stroke-width:0.499999;stroke-linecap:square;stroke-linejoin:miter;stroke-miterlimit:4;stroke-dasharray:none;stroke-opacity:1"
           id="circle980"
           cx="-29.038853"
           cy="34.550182"
           r="4" />
      </g>
      <g
         id="g1006"
         transform="translate(1.0972976,33.933643)">
        <rect
           style="display:inline;opacity:0.313971;fill:none;stroke:#767676;stroke-width:0.265;stroke-linecap:square;stroke-miterlimit:4;stroke-dasharray:none;stroke-opacity:1"
           id="rect1002"
           width="16"
           height="16"
           x="3.8279188"
           y="7.762898" />
        <rect
           style="display:inline;fill:#000000;fill-opacity:0.0943718;stroke:#767676;stroke-width:0.5;stroke-linecap:square;stroke-linejoin:miter;stroke-miterlimit:4;stroke-dasharray:none;stroke-opacity:1"
           id="rect1004"
           width="17.5"
           height="17.5"
           x="3.0779188"
           y="7.012898"
           ry="2.2181239"
           rx="2.2181239" />
      </g>
      <g
         id="g1052"
         transform="translate(68.323783,15.892151)">
        <path
           id="path1046"
           style="display:inline;opacity:1;fill:none;fill-opacity:1;stroke:#000000;stroke-width:0.1;stroke-linejoin:miter;stroke-miterlimit:4;stroke-dasharray:none;stroke-opacity:1"
           d="m -39.370827,32.527662 c -2.143594,0 -4.124356,-1.143593 -5.196153,-3 -1.071797,-1.856406 -1.071797,-4.143594 0,-6 1.071797,-1.856407 3.052559,-3 5.196153,-3"
           sodipodi:nodetypes="cssc" />
        <path
           id="path1048"
           style="display:inline;opacity:1;fill:none;fill-opacity:1;stroke:#000000;stroke-width:0.1;stroke-linejoin:miter;stroke-miterlimit:4;stroke-dasharray:none;stroke-opacity:1"
           d="m -39.370827,20.527662 h 12 v 12 h -12"
           sodipodi:nodetypes="cccc" />
        <ellipse
           style="fill:#000000;fill-opacity:0.0943718;stroke:#767676;stroke-width:0.441176;stroke-linecap:square;stroke-linejoin:miter;stroke-miterlimit:4;stroke-dasharray:none;stroke-opacity:1"
           id="ellipse1050"
           cx="-33.345825"
           cy="26.527662"
           rx="3.5294123"
           ry="3.529412" />
      </g>
    </g>
    <g
       id="g1185"
       transform="translate(0,-26.670241)">
      <g
         id="g1151"
         transform="translate(67.310531,-31.037279)"
         style="opacity:0.313971">
        <rect
           style="display:inline;opacity:0.313971;fill:none;stroke:#767676;stroke-width:0.265;stroke-linecap:square;stroke-miterlimit:4;stroke-dasharray:none;stroke-opacity:1"
           id="rect1141"
           width="8.7350006"
           height="10.735"
           x="69.089592"
           y="11.107301"
           transform="rotate(90)" />
        <rect
           style="display:inline;opacity:0.313971;fill:none;stroke:#767676;stroke-width:0.264999;stroke-linecap:square;stroke-miterlimit:4;stroke-dasharray:none;stroke-opacity:1"
           id="rect1143"
           width="0.73500103"
           height="0.73500001"
           x="73.089592"
           y="6.8826051"
           transform="rotate(90)"
           ry="4.3674998"
           rx="4.3675003" />
        <g
           id="g1149"
           transform="translate(-69.645363,-13.630478)">
          <path
             sodipodi:type="star"
             sodipodi:cx="53.170563"
             sodipodi:cy="87.08757"
             sodipodi:arg1="0.78539816"
             sodipodi:arg2="0.84823001"
             inkscape:rounded="0"
             sodipodi:sides="50"
             sodipodi:r1="4"
             sodipodi:r2="3.8095238"
             style="fill:#1a5fb4;stroke:#000000;stroke-width:0.1"
             id="path1145"
             inkscape:flatsided="false"
             inkscape:randomized="0"
             d="m 55.99899,89.915997 -0.309144,0.02914 -0.06766,0.303054 -0.310358,-0.0098 -0.105105,0.292185 -0.306678,-0.04866 -0.140896,0.276708 -0.298161,-0.08671 -0.174466,0.256867 -0.284942,-0.123397 -0.205284,0.232976 -0.26723,-0.158137 -0.232865,0.205409 -0.245303,-0.190382 -0.256773,0.174604 -0.219508,-0.219626 -0.276632,0.141045 -0.19025,-0.245405 -0.292129,0.105261 -0.157993,-0.267315 -0.303017,0.06782 -0.123244,-0.285009 -0.309128,0.02931 -0.08655,-0.298207 -0.310364,-0.0097 -0.04849,-0.306704 -0.306705,-0.04849 -0.0097,-0.310364 -0.298208,-0.08655 0.02931,-0.309128 -0.285009,-0.123244 0.06782,-0.303017 -0.267315,-0.157993 0.105261,-0.292129 -0.245405,-0.19025 0.141044,-0.276632 -0.219625,-0.219508 0.174604,-0.256773 -0.190382,-0.245303 0.205409,-0.232865 -0.158137,-0.26723 0.232976,-0.205284 -0.123397,-0.284942 0.256867,-0.174466 -0.08671,-0.298161 0.276708,-0.140896 -0.04866,-0.306678 0.292185,-0.105105 -0.0098,-0.310358 0.303054,-0.06766 0.02914,-0.309144 0.309143,-0.02914 0.06766,-0.303054 0.310358,0.0098 0.105104,-0.292185 0.306678,0.04866 0.140896,-0.276708 0.298162,0.08671 0.174465,-0.256867 0.284943,0.123397 0.205284,-0.232975 0.26723,0.158136 0.232865,-0.205409 0.245303,0.190382 0.256773,-0.174604 0.219508,0.219626 0.276632,-0.141045 0.19025,0.245406 0.292128,-0.105262 0.157993,0.267315 0.303018,-0.06782 0.123243,0.285009 0.309128,-0.02931 0.08655,0.298208 0.310363,0.0097 0.04849,0.306704 0.306704,0.04849 0.0097,0.310363 0.298208,0.08655 -0.02931,0.309128 0.285009,0.123243 -0.06782,0.303018 0.267315,0.157992 -0.105262,0.292129 0.245406,0.19025 -0.141045,0.276632 0.219626,0.219508 -0.174604,0.256773 0.190382,0.245303 -0.205409,0.232865 0.158136,0.26723 -0.232975,0.205284 0.123396,0.284943 -0.256867,0.174465 0.08671,0.298162 -0.276708,0.140896 0.04866,0.306678 -0.292185,0.105104 0.0098,0.310358 -0.303054,0.06766 z" />
          <circle
             cx="53.170563"
             cy="87.08757"
             r="2.375"
             id="circle1147"
             style="fill:#000000;stroke:#000000;stroke-width:1.25" />
        </g>
      </g>
      <g
         id="g1163"
         transform="translate(67.310531,-16.483823)"
         style="opacity:0.313971">
        <rect
           style="display:inline;opacity:0.313971;fill:none;stroke:#767676;stroke-width:0.265;stroke-linecap:square;stroke-miterlimit:4;stroke-dasharray:none;stroke-opacity:1"
           id="rect1153"
           width="8.7350006"
           height="10.735"
           x="69.089592"
           y="11.107301"
           transform="rotate(90)" />
        <rect
           style="display:inline;opacity:0.313971;fill:none;stroke:#767676;stroke-width:0.264999;stroke-linecap:square;stroke-miterlimit:4;stroke-dasharray:none;stroke-opacity:1"
           id="rect1155"
           width="0.73500103"
           height="0.73500001"
           x="73.089592"
           y="6.8826051"
           transform="rotate(90)"
           ry="4.3674998"
           rx="4.3675003" />
        <g
           id="g1161"
           transform="translate(-69.645363,-13.630478)">
          <path
             sodipodi:type="star"
             sodipodi:cx="53.170563"
             sodipodi:cy="87.08757"
             sodipodi:arg1="0.78539816"
             sodipodi:arg2="0.84823001"
             inkscape:rounded="0"
             sodipodi:sides="50"
             sodipodi:r1="4"
             sodipodi:r2="3.8095238"
             style="fill:#1a5fb4;stroke:#000000;stroke-width:0.1"
             id="path1157"
             inkscape:flatsided="false"
             inkscape:randomized="0"
             d="m 55.99899,89.915997 -0.309144,0.02914 -0.06766,0.303054 -0.310358,-0.0098 -0.105105,0.292185 -0.306678,-0.04866 -0.140896,0.276708 -0.298161,-0.08671 -0.174466,0.256867 -0.284942,-0.123397 -0.205284,0.232976 -0.26723,-0.158137 -0.232865,0.205409 -0.245303,-0.190382 -0.256773,0.174604 -0.219508,-0.219626 -0.276632,0.141045 -0.19025,-0.245405 -0.292129,0.105261 -0.157993,-0.267315 -0.303017,0.06782 -0.123244,-0.285009 -0.309128,0.02931 -0.08655,-0.298207 -0.310364,-0.0097 -0.04849,-0.306704 -0.306705,-0.04849 -0.0097,-0.310364 -0.298208,-0.08655 0.02931,-0.309128 -0.285009,-0.123244 0.06782,-0.303017 -0.267315,-0.157993 0.105261,-0.292129 -0.245405,-0.19025 0.141044,-0.276632 -0.219625,-0.219508 0.174604,-0.256773 -0.190382,-0.245303 0.205409,-0.232865 -0.158137,-0.26723 0.232976,-0.205284 -0.123397,-0.284942 0.256867,-0.174466 -0.08671,-0.298161 0.276708,-0.140896 -0.04866,-0.306678 0.292185,-0.105105 -0.0098,-0.310358 0.303054,-0.06766 0.02914,-0.309144 0.309143,-0.02914 0.06766,-0.303054 0.310358,0.0098 0.105104,-0.292185 0.306678,0.04866 0.140896,-0.276708 0.298162,0.08671 0.174465,-0.256867 0.284943,0.123397 0.205284,-0.232975 0.26723,0.158136 0.232865,-0.205409 0.245303,0.190382 0.256773,-0.174604 0.219508,0.219626 0.276632,-0.141045 0.19025,0.245406 0.292128,-0.105262 0.157993,0.267315 0.303018,-0.06782 0.123243,0.285009 0.309128,-0.02931 0.08655,0.298208 0.310363,0.0097 0.04849,0.306704 0.306704,0.04849 0.0097,0.310363 0.298208,0.08655 -0.02931,0.309128 0.285009,0.123243 -0.06782,0.303018 0.267315,0.157992 -0.105262,0.292129 0.245406,0.19025 -0.141045,0.276632 0.219626,0.219508 -0.174604,0.256773 0.190382,0.245303 -0.205409,0.232865 0.158136,0.26723 -0.232975,0.205284 0.123396,0.284943 -0.256867,0.174465 0.08671,0.298162 -0.276708,0.140896 0.04866,0.306678 -0.292185,0.105104 0.0098,0.310358 -0.303054,0.06766 z" />
          <circle
             cx="53.170563"
             cy="87.08757"
             r="2.375"
             id="circle1159"
             style="fill:#000000;stroke:#000000;stroke-width:1.25" />
        </g>
      </g>
      <g
         id="g1169"
         transform="translate(64.084816,22.423087)">
        <rect
           style="display:inline;opacity:0.313971;fill:none;stroke:#767676;stroke-width:0.265;stroke-linecap:square;stroke-miterlimit:4;stroke-dasharray:none;stroke-opacity:1"
           id="rect1165"
           width="7.7350001"
           height="7.7350001"
           x="-32.906353"
           y="30.682684" />
        <circle
           style="opacity:1;fill:#000000;fill-opacity:0.0943718;stroke:#767676;stroke-width:0.499999;stroke-linecap:square;stroke-linejoin:miter;stroke-miterlimit:4;stroke-dasharray:none;stroke-opacity:1"
           id="circle1167"
           cx="-29.038853"
           cy="34.550182"
           r="4" />
      </g>
      <g
         id="g1175"
         transform="translate(1.0972976,33.933643)">
        <rect
           style="display:inline;opacity:0.313971;fill:none;stroke:#767676;stroke-width:0.265;stroke-linecap:square;stroke-miterlimit:4;stroke-dasharray:none;stroke-opacity:1"
           id="rect1171"
           width="16"
           height="16"
           x="3.8279188"
           y="7.762898" />
        <rect
           style="display:inline;fill:#000000;fill-opacity:0.0943718;stroke:#767676;stroke-width:0.5;stroke-linecap:square;stroke-linejoin:miter;stroke-miterlimit:4;stroke-dasharray:none;stroke-opacity:1"
           id="rect1173"
           width="17.5"
           height="17.5"
           x="3.0779188"
           y="7.012898"
           ry="2.2181239"
           rx="2.2181239" />
      </g>
      <g
         id="g1183"
         transform="translate(68.323783,15.892151)">
        <path
           id="path1177"
           style="display:inline;opacity:1;fill:none;fill-opacity:1;stroke:#000000;stroke-width:0.1;stroke-linejoin:miter;stroke-miterlimit:4;stroke-dasharray:none;stroke-opacity:1"
           d="m -39.370827,32.527662 c -2.143594,0 -4.124356,-1.143593 -5.196153,-3 -1.071797,-1.856406 -1.071797,-4.143594 0,-6 1.071797,-1.856407 3.052559,-3 5.196153,-3"
           sodipodi:nodetypes="cssc" />
        <path
           id="path1179"
           style="display:inline;opacity:1;fill:none;fill-opacity:1;stroke:#000000;stroke-width:0.1;stroke-linejoin:miter;stroke-miterlimit:4;stroke-dasharray:none;stroke-opacity:1"
           d="m -39.370827,20.527662 h 12 v 12 h -12"
           sodipodi:nodetypes="cccc" />
        <ellipse
           style="fill:#000000;fill-opacity:0.0943718;stroke:#767676;stroke-width:0.441176;stroke-linecap:square;stroke-linejoin:miter;stroke-miterlimit:4;stroke-dasharray:none;stroke-opacity:1"
           id="ellipse1181"
           cx="-33.345825"
           cy="26.527662"
           rx="3.5294123"
           ry="3.529412" />
      </g>
    </g>
    <g
       id="g1346"
       transform="translate(0,1.9102024)">
      <g
         id="g1197"
         transform="translate(67.310531,-2.833229)"
         style="opacity:0.313971">
        <rect
           style="display:inline;opacity:0.313971;fill:none;stroke:#767676;stroke-width:0.265;stroke-linecap:square;stroke-miterlimit:4;stroke-dasharray:none;stroke-opacity:1"
           id="rect1187"
           width="8.7350006"
           height="10.735"
           x="69.089592"
           y="11.107301"
           transform="rotate(90)" />
        <rect
           style="display:inline;opacity:0.313971;fill:none;stroke:#767676;stroke-width:0.264999;stroke-linecap:square;stroke-miterlimit:4;stroke-dasharray:none;stroke-opacity:1"
           id="rect1189"
           width="0.73500103"
           height="0.73500001"
           x="73.089592"
           y="6.8826051"
           transform="rotate(90)"
           ry="4.3674998"
           rx="4.3675003" />
        <g
           id="g1195"
           transform="translate(-69.645363,-13.630478)">
          <path
             sodipodi:type="star"
             sodipodi:cx="53.170563"
             sodipodi:cy="87.08757"
             sodipodi:arg1="0.78539816"
             sodipodi:arg2="0.84823001"
             inkscape:rounded="0"
             sodipodi:sides="50"
             sodipodi:r1="4"
             sodipodi:r2="3.8095238"
             style="fill:#1a5fb4;stroke:#000000;stroke-width:0.1"
             id="path1191"
             inkscape:flatsided="false"
             inkscape:randomized="0"
             d="m 55.99899,89.915997 -0.309144,0.02914 -0.06766,0.303054 -0.310358,-0.0098 -0.105105,0.292185 -0.306678,-0.04866 -0.140896,0.276708 -0.298161,-0.08671 -0.174466,0.256867 -0.284942,-0.123397 -0.205284,0.232976 -0.26723,-0.158137 -0.232865,0.205409 -0.245303,-0.190382 -0.256773,0.174604 -0.219508,-0.219626 -0.276632,0.141045 -0.19025,-0.245405 -0.292129,0.105261 -0.157993,-0.267315 -0.303017,0.06782 -0.123244,-0.285009 -0.309128,0.02931 -0.08655,-0.298207 -0.310364,-0.0097 -0.04849,-0.306704 -0.306705,-0.04849 -0.0097,-0.310364 -0.298208,-0.08655 0.02931,-0.309128 -0.285009,-0.123244 0.06782,-0.303017 -0.267315,-0.157993 0.105261,-0.292129 -0.245405,-0.19025 0.141044,-0.276632 -0.219625,-0.219508 0.174604,-0.256773 -0.190382,-0.245303 0.205409,-0.232865 -0.158137,-0.26723 0.232976,-0.205284 -0.123397,-0.284942 0.256867,-0.174466 -0.08671,-0.298161 0.276708,-0.140896 -0.04866,-0.306678 0.292185,-0.105105 -0.0098,-0.310358 0.303054,-0.06766 0.02914,-0.309144 0.309143,-0.02914 0.06766,-0.303054 0.310358,0.0098 0.105104,-0.292185 0.306678,0.04866 0.140896,-0.276708 0.298162,0.08671 0.174465,-0.256867 0.284943,0.123397 0.205284,-0.232975 0.26723,0.158136 0.232865,-0.205409 0.245303,0.190382 0.256773,-0.174604 0.219508,0.219626 0.276632,-0.141045 0.19025,0.245406 0.292128,-0.105262 0.157993,0.267315 0.303018,-0.06782 0.123243,0.285009 0.309128,-0.02931 0.08655,0.298208 0.310363,0.0097 0.04849,0.306704 0.306704,0.04849 0.0097,0.310363 0.298208,0.08655 -0.02931,0.309128 0.285009,0.123243 -0.06782,0.303018 0.267315,0.157992 -0.105262,0.292129 0.245406,0.19025 -0.141045,0.276632 0.219626,0.219508 -0.174604,0.256773 0.190382,0.245303 -0.205409,0.232865 0.158136,0.26723 -0.232975,0.205284 0.123396,0.284943 -0.256867,0.174465 0.08671,0.298162 -0.276708,0.140896 0.04866,0.306678 -0.292185,0.105104 0.0098,0.310358 -0.303054,0.06766 z" />
          <circle
             cx="53.170563"
             cy="87.08757"
             r="2.375"
             id="circle1193"
             style="fill:#000000;stroke:#000000;stroke-width:1.25" />
        </g>
      </g>
      <g
         id="g1209"
         transform="translate(67.310531,11.720227)"
         style="opacity:0.313971">
        <rect
           style="display:inline;opacity:0.313971;fill:none;stroke:#767676;stroke-width:0.265;stroke-linecap:square;stroke-miterlimit:4;stroke-dasharray:none;stroke-opacity:1"
           id="rect1199"
           width="8.7350006"
           height="10.735"
           x="69.089592"
           y="11.107301"
           transform="rotate(90)" />
        <rect
           style="display:inline;opacity:0.313971;fill:none;stroke:#767676;stroke-width:0.264999;stroke-linecap:square;stroke-miterlimit:4;stroke-dasharray:none;stroke-opacity:1"
           id="rect1201"
           width="0.73500103"
           height="0.73500001"
           x="73.089592"
           y="6.8826051"
           transform="rotate(90)"
           ry="4.3674998"
           rx="4.3675003" />
        <g
           id="g1207"
           transform="translate(-69.645363,-13.630478)">
          <path
             sodipodi:type="star"
             sodipodi:cx="53.170563"
             sodipodi:cy="87.08757"
             sodipodi:arg1="0.78539816"
             sodipodi:arg2="0.84823001"
             inkscape:rounded="0"
             sodipodi:sides="50"
             sodipodi:r1="4"
             sodipodi:r2="3.8095238"
             style="fill:#1a5fb4;stroke:#000000;stroke-width:0.1"
             id="path1203"
             inkscape:flatsided="false"
             inkscape:randomized="0"
             d="m 55.99899,89.915997 -0.309144,0.02914 -0.06766,0.303054 -0.310358,-0.0098 -0.105105,0.292185 -0.306678,-0.04866 -0.140896,0.276708 -0.298161,-0.08671 -0.174466,0.256867 -0.284942,-0.123397 -0.205284,0.232976 -0.26723,-0.158137 -0.232865,0.205409 -0.245303,-0.190382 -0.256773,0.174604 -0.219508,-0.219626 -0.276632,0.141045 -0.19025,-0.245405 -0.292129,0.105261 -0.157993,-0.267315 -0.303017,0.06782 -0.123244,-0.285009 -0.309128,0.02931 -0.08655,-0.298207 -0.310364,-0.0097 -0.04849,-0.306704 -0.306705,-0.04849 -0.0097,-0.310364 -0.298208,-0.08655 0.02931,-0.309128 -0.285009,-0.123244 0.06782,-0.303017 -0.267315,-0.157993 0.105261,-0.292129 -0.245405,-0.19025 0.141044,-0.276632 -0.219625,-0.219508 0.174604,-0.256773 -0.190382,-0.245303 0.205409,-0.232865 -0.158137,-0.26723 0.232976,-0.205284 -0.123397,-0.284942 0.256867,-0.174466 -0.08671,-0.298161 0.276708,-0.140896 -0.04866,-0.306678 0.292185,-0.105105 -0.0098,-0.310358 0.303054,-0.06766 0.02914,-0.309144 0.309143,-0.02914 0.06766,-0.303054 0.310358,0.0098 0.105104,-0.292185 0.306678,0.04866 0.140896,-0.276708 0.298162,0.08671 0.174465,-0.256867 0.284943,0.123397 0.205284,-0.232975 0.26723,0.158136 0.232865,-0.205409 0.245303,0.190382 0.256773,-0.174604 0.219508,0.219626 0.276632,-0.141045 0.19025,0.245406 0.292128,-0.105262 0.157993,0.267315 0.303018,-0.06782 0.123243,0.285009 0.309128,-0.02931 0.08655,0.298208 0.310363,0.0097 0.04849,0.306704 0.306704,0.04849 0.0097,0.310363 0.298208,0.08655 -0.02931,0.309128 0.285009,0.123243 -0.06782,0.303018 0.267315,0.157992 -0.105262,0.292129 0.245406,0.19025 -0.141045,0.276632 0.219626,0.219508 -0.174604,0.256773 0.190382,0.245303 -0.205409,0.232865 0.158136,0.26723 -0.232975,0.205284 0.123396,0.284943 -0.256867,0.174465 0.08671,0.298162 -0.276708,0.140896 0.04866,0.306678 -0.292185,0.105104 0.0098,0.310358 -0.303054,0.06766 z" />
          <circle
             cx="53.170563"
             cy="87.08757"
             r="2.375"
             id="circle1205"
             style="fill:#000000;stroke:#000000;stroke-width:1.25" />
        </g>
      </g>
      <g
         id="g1215"
         transform="translate(64.084816,50.627137)">
        <rect
           style="display:inline;opacity:0.313971;fill:none;stroke:#767676;stroke-width:0.265;stroke-linecap:square;stroke-miterlimit:4;stroke-dasharray:none;stroke-opacity:1"
           id="rect1211"
           width="7.7350001"
           height="7.7350001"
           x="-32.906353"
           y="30.682684" />
        <circle
           style="opacity:1;fill:#000000;fill-opacity:0.0943718;stroke:#767676;stroke-width:0.499999;stroke-linecap:square;stroke-linejoin:miter;stroke-miterlimit:4;stroke-dasharray:none;stroke-opacity:1"
           id="circle1213"
           cx="-29.038853"
           cy="34.550182"
           r="4" />
      </g>
      <g
         id="g1221"
         transform="translate(1.0972976,62.137693)">
        <rect
           style="display:inline;opacity:0.313971;fill:none;stroke:#767676;stroke-width:0.265;stroke-linecap:square;stroke-miterlimit:4;stroke-dasharray:none;stroke-opacity:1"
           id="rect1217"
           width="16"
           height="16"
           x="3.8279188"
           y="7.762898" />
        <rect
           style="display:inline;fill:#000000;fill-opacity:0.0943718;stroke:#767676;stroke-width:0.5;stroke-linecap:square;stroke-linejoin:miter;stroke-miterlimit:4;stroke-dasharray:none;stroke-opacity:1"
           id="rect1219"
           width="17.5"
           height="17.5"
           x="3.0779188"
           y="7.012898"
           ry="2.2181239"
           rx="2.2181239" />
      </g>
      <g
         id="g1229"
         transform="translate(68.323783,44.096201)">
        <path
           id="path1223"
           style="display:inline;opacity:1;fill:none;fill-opacity:1;stroke:#000000;stroke-width:0.1;stroke-linejoin:miter;stroke-miterlimit:4;stroke-dasharray:none;stroke-opacity:1"
           d="m -39.370827,32.527662 c -2.143594,0 -4.124356,-1.143593 -5.196153,-3 -1.071797,-1.856406 -1.071797,-4.143594 0,-6 1.071797,-1.856407 3.052559,-3 5.196153,-3"
           sodipodi:nodetypes="cssc" />
        <path
           id="path1225"
           style="display:inline;opacity:1;fill:none;fill-opacity:1;stroke:#000000;stroke-width:0.1;stroke-linejoin:miter;stroke-miterlimit:4;stroke-dasharray:none;stroke-opacity:1"
           d="m -39.370827,20.527662 h 12 v 12 h -12"
           sodipodi:nodetypes="cccc" />
        <ellipse
           style="fill:#000000;fill-opacity:0.0943718;stroke:#767676;stroke-width:0.441176;stroke-linecap:square;stroke-linejoin:miter;stroke-miterlimit:4;stroke-dasharray:none;stroke-opacity:1"
           id="ellipse1227"
           cx="-33.345825"
           cy="26.527662"
           rx="3.5294123"
           ry="3.529412" />
      </g>
    </g>
    <g
       id="g1396">
      <g
         id="g1198"
         transform="translate(67.310531,27.469226)"
         style="opacity:0.313971">
        <rect
           style="display:inline;opacity:0.313971;fill:none;stroke:#767676;stroke-width:0.265;stroke-linecap:square;stroke-miterlimit:4;stroke-dasharray:none;stroke-opacity:1"
           id="rect1188"
           width="8.7350006"
           height="10.735"
           x="69.089592"
           y="11.107301"
           transform="rotate(90)" />
        <rect
           style="display:inline;opacity:0.313971;fill:none;stroke:#767676;stroke-width:0.264999;stroke-linecap:square;stroke-miterlimit:4;stroke-dasharray:none;stroke-opacity:1"
           id="rect1190"
           width="0.73500103"
           height="0.73500001"
           x="73.089592"
           y="6.8826051"
           transform="rotate(90)"
           ry="4.3674998"
           rx="4.3675003" />
        <g
           id="g1196"
           transform="translate(-69.645363,-13.630478)">
          <path
             sodipodi:type="star"
             sodipodi:cx="53.170563"
             sodipodi:cy="87.08757"
             sodipodi:arg1="0.78539816"
             sodipodi:arg2="0.84823001"
             inkscape:rounded="0"
             sodipodi:sides="50"
             sodipodi:r1="4"
             sodipodi:r2="3.8095238"
             style="fill:#1a5fb4;stroke:#000000;stroke-width:0.1"
             id="path1192"
             inkscape:flatsided="false"
             inkscape:randomized="0"
             d="m 55.99899,89.915997 -0.309144,0.02914 -0.06766,0.303054 -0.310358,-0.0098 -0.105105,0.292185 -0.306678,-0.04866 -0.140896,0.276708 -0.298161,-0.08671 -0.174466,0.256867 -0.284942,-0.123397 -0.205284,0.232976 -0.26723,-0.158137 -0.232865,0.205409 -0.245303,-0.190382 -0.256773,0.174604 -0.219508,-0.219626 -0.276632,0.141045 -0.19025,-0.245405 -0.292129,0.105261 -0.157993,-0.267315 -0.303017,0.06782 -0.123244,-0.285009 -0.309128,0.02931 -0.08655,-0.298207 -0.310364,-0.0097 -0.04849,-0.306704 -0.306705,-0.04849 -0.0097,-0.310364 -0.298208,-0.08655 0.02931,-0.309128 -0.285009,-0.123244 0.06782,-0.303017 -0.267315,-0.157993 0.105261,-0.292129 -0.245405,-0.19025 0.141044,-0.276632 -0.219625,-0.219508 0.174604,-0.256773 -0.190382,-0.245303 0.205409,-0.232865 -0.158137,-0.26723 0.232976,-0.205284 -0.123397,-0.284942 0.256867,-0.174466 -0.08671,-0.298161 0.276708,-0.140896 -0.04866,-0.306678 0.292185,-0.105105 -0.0098,-0.310358 0.303054,-0.06766 0.02914,-0.309144 0.309143,-0.02914 0.06766,-0.303054 0.310358,0.0098 0.105104,-0.292185 0.306678,0.04866 0.140896,-0.276708 0.298162,0.08671 0.174465,-0.256867 0.284943,0.123397 0.205284,-0.232975 0.26723,0.158136 0.232865,-0.205409 0.245303,0.190382 0.256773,-0.174604 0.219508,0.219626 0.276632,-0.141045 0.19025,0.245406 0.292128,-0.105262 0.157993,0.267315 0.303018,-0.06782 0.123243,0.285009 0.309128,-0.02931 0.08655,0.298208 0.310363,0.0097 0.04849,0.306704 0.306704,0.04849 0.0097,0.310363 0.298208,0.08655 -0.02931,0.309128 0.285009,0.123243 -0.06782,0.303018 0.267315,0.157992 -0.105262,0.292129 0.245406,0.19025 -0.141045,0.276632 0.219626,0.219508 -0.174604,0.256773 0.190382,0.245303 -0.205409,0.232865 0.158136,0.26723 -0.232975,0.205284 0.123396,0.284943 -0.256867,0.174465 0.08671,0.298162 -0.276708,0.140896 0.04866,0.306678 -0.292185,0.105104 0.0098,0.310358 -0.303054,0.06766 z" />
          <circle
             cx="53.170563"
             cy="87.08757"
             r="2.375"
             id="circle1194"
             style="fill:#000000;stroke:#000000;stroke-width:1.25" />
        </g>
      </g>
      <g
         id="g1210"
         transform="translate(67.310531,42.022688)"
         style="opacity:0.313971">
        <rect
           style="display:inline;opacity:0.313971;fill:none;stroke:#767676;stroke-width:0.265;stroke-linecap:square;stroke-miterlimit:4;stroke-dasharray:none;stroke-opacity:1"
           id="rect1200"
           width="8.7350006"
           height="10.735"
           x="69.089592"
           y="11.107301"
           transform="rotate(90)" />
        <rect
           style="display:inline;opacity:0.313971;fill:none;stroke:#767676;stroke-width:0.264999;stroke-linecap:square;stroke-miterlimit:4;stroke-dasharray:none;stroke-opacity:1"
           id="rect1202"
           width="0.73500103"
           height="0.73500001"
           x="73.089592"
           y="6.8826051"
           transform="rotate(90)"
           ry="4.3674998"
           rx="4.3675003" />
        <g
           id="g1208"
           transform="translate(-69.645363,-13.630478)">
          <path
             sodipodi:type="star"
             sodipodi:cx="53.170563"
             sodipodi:cy="87.08757"
             sodipodi:arg1="0.78539816"
             sodipodi:arg2="0.84823001"
             inkscape:rounded="0"
             sodipodi:sides="50"
             sodipodi:r1="4"
             sodipodi:r2="3.8095238"
             style="fill:#1a5fb4;stroke:#000000;stroke-width:0.1"
             id="path1204"
             inkscape:flatsided="false"
             inkscape:randomized="0"
             d="m 55.99899,89.915997 -0.309144,0.02914 -0.06766,0.303054 -0.310358,-0.0098 -0.105105,0.292185 -0.306678,-0.04866 -0.140896,0.276708 -0.298161,-0.08671 -0.174466,0.256867 -0.284942,-0.123397 -0.205284,0.232976 -0.26723,-0.158137 -0.232865,0.205409 -0.245303,-0.190382 -0.256773,0.174604 -0.219508,-0.219626 -0.276632,0.141045 -0.19025,-0.245405 -0.292129,0.105261 -0.157993,-0.267315 -0.303017,0.06782 -0.123244,-0.285009 -0.309128,0.02931 -0.08655,-0.298207 -0.310364,-0.0097 -0.04849,-0.306704 -0.306705,-0.04849 -0.0097,-0.310364 -0.298208,-0.08655 0.02931,-0.309128 -0.285009,-0.123244 0.06782,-0.303017 -0.267315,-0.157993 0.105261,-0.292129 -0.245405,-0.19025 0.141044,-0.276632 -0.219625,-0.219508 0.174604,-0.256773 -0.190382,-0.245303 0.205409,-0.232865 -0.158137,-0.26723 0.232976,-0.205284 -0.123397,-0.284942 0.256867,-0.174466 -0.08671,-0.298161 0.276708,-0.140896 -0.04866,-0.306678 0.292185,-0.105105 -0.0098,-0.310358 0.303054,-0.06766 0.02914,-0.309144 0.309143,-0.02914 0.06766,-0.303054 0.310358,0.0098 0.105104,-0.292185 0.306678,0.04866 0.140896,-0.276708 0.298162,0.08671 0.174465,-0.256867 0.284943,0.123397 0.205284,-0.232975 0.26723,0.158136 0.232865,-0.205409 0.245303,0.190382 0.256773,-0.174604 0.219508,0.219626 0.276632,-0.141045 0.19025,0.245406 0.292128,-0.105262 0.157993,0.267315 0.303018,-0.06782 0.123243,0.285009 0.309128,-0.02931 0.08655,0.298208 0.310363,0.0097 0.04849,0.306704 0.306704,0.04849 0.0097,0.310363 0.298208,0.08655 -0.02931,0.309128 0.285009,0.123243 -0.06782,0.303018 0.267315,0.157992 -0.105262,0.292129 0.245406,0.19025 -0.141045,0.276632 0.219626,0.219508 -0.174604,0.256773 0.190382,0.245303 -0.205409,0.232865 0.158136,0.26723 -0.232975,0.205284 0.123396,0.284943 -0.256867,0.174465 0.08671,0.298162 -0.276708,0.140896 0.04866,0.306678 -0.292185,0.105104 0.0098,0.310358 -0.303054,0.06766 z" />
          <circle
             cx="53.170563"
             cy="87.08757"
             r="2.375"
             id="circle1206"
             style="fill:#000000;stroke:#000000;stroke-width:1.25" />
        </g>
      </g>
      <g
         id="g1253"
         transform="rotate(90,14.306537,104.74182)"
         style="opacity:0.313971">
        <rect
           style="display:inline;opacity:0.313971;fill:none;stroke:#767676;stroke-width:0.265;stroke-linecap:square;stroke-miterlimit:4;stroke-dasharray:none;stroke-opacity:1"
           id="rect1230"
           width="8.7350006"
           height="10.735"
           x="101.75564"
           y="-15.873686"
           transform="rotate(90)" />
        <rect
           style="display:inline;opacity:0.313971;fill:none;stroke:#767676;stroke-width:0.264999;stroke-linecap:square;stroke-miterlimit:4;stroke-dasharray:none;stroke-opacity:1"
           id="rect1232"
           width="0.73500103"
           height="0.73500001"
           x="105.75564"
           y="-20.098381"
           transform="rotate(90)"
           ry="4.3674998"
           rx="4.3675003" />
        <path
           sodipodi:type="star"
           sodipodi:cx="10.506187"
           sodipodi:cy="106.12314"
           sodipodi:arg1="0.78539816"
           sodipodi:arg2="0.84823001"
           inkscape:rounded="0"
           sodipodi:sides="50"
           sodipodi:r1="4"
           sodipodi:r2="3.8095238"
           style="fill:#1a5fb4;stroke:#000000;stroke-width:0.1"
           id="path1234"
           inkscape:flatsided="false"
           inkscape:randomized="0"
           d="m 13.334615,108.95157 -0.309144,0.0291 -0.06766,0.30306 -0.310359,-0.01 -0.105104,0.29219 -0.306678,-0.0487 -0.140896,0.27671 -0.298161,-0.0867 -0.174466,0.25686 -0.284943,-0.12339 -0.205284,0.23297 -0.26723,-0.15813 -0.232865,0.2054 -0.245303,-0.19038 -0.256773,0.17461 -0.2195074,-0.21963 -0.2766321,0.14105 -0.1902503,-0.24541 -0.2921284,0.10526 -0.1579927,-0.26731 -0.3030176,0.0678 -0.1232434,-0.285 -0.3091282,0.0293 -0.086551,-0.29821 -0.3103634,-0.01 -0.048493,-0.3067 -0.3067041,-0.0485 -0.00967,-0.31037 -0.298208,-0.0866 0.029305,-0.30913 -0.2850089,-0.12324 0.067818,-0.30302 -0.2673149,-0.15799 0.1052614,-0.29213 -0.2454054,-0.19025 0.1410448,-0.27663 -0.2196256,-0.21951 0.1746038,-0.25677 -0.1903822,-0.2453 0.2054092,-0.23287 -0.1581363,-0.26723 0.2329752,-0.20528 -0.1233966,-0.28495 0.256867,-0.17446 -0.086711,-0.29816 0.2767079,-0.1409 -0.048658,-0.30668 0.292185,-0.1051 -0.00984,-0.31036 0.303054,-0.0677 0.029139,-0.30915 0.3091438,-0.0291 0.067655,-0.30305 0.3103582,0.01 0.1051044,-0.29219 0.306678,0.0487 0.1408961,-0.27671 0.2981613,0.0867 0.1744658,-0.25687 0.2849425,0.1234 0.2052841,-0.23297 0.2672304,0.15813 0.232864,-0.20541 0.245303,0.19038 0.256774,-0.1746 0.219507,0.21963 0.276632,-0.14105 0.190251,0.24541 0.292128,-0.10526 0.157993,0.26731 0.303017,-0.0678 0.123244,0.28501 0.309128,-0.0293 0.08655,0.2982 0.310364,0.01 0.04849,0.30671 0.306704,0.0485 0.0097,0.31036 0.298208,0.0865 -0.02931,0.30913 0.285009,0.12325 -0.06782,0.30301 0.267315,0.158 -0.105262,0.29213 0.245405,0.19025 -0.141044,0.27663 0.219625,0.21951 -0.174604,0.25677 0.190383,0.2453 -0.20541,0.23287 0.158137,0.26723 -0.232975,0.20528 0.123396,0.28494 -0.256867,0.17447 0.08671,0.29816 -0.276708,0.1409 0.04866,0.30667 -0.292185,0.10511 0.0098,0.31036 -0.303054,0.0677 z" />
        <circle
           cx="10.506186"
           cy="106.12314"
           r="2.375"
           id="circle1236"
           style="fill:#000000;stroke:#000000;stroke-width:1.25" />
      </g>
      <g
         id="g994"
         transform="translate(64.084816,80.929599)">
        <rect
           style="display:inline;opacity:0.313971;fill:none;stroke:#767676;stroke-width:0.265;stroke-linecap:square;stroke-miterlimit:4;stroke-dasharray:none;stroke-opacity:1"
           id="rect990"
           width="7.7350001"
           height="7.7350001"
           x="-32.906353"
           y="30.682684" />
        <circle
           style="opacity:1;fill:#000000;fill-opacity:0.0943718;stroke:#767676;stroke-width:0.499999;stroke-linecap:square;stroke-linejoin:miter;stroke-miterlimit:4;stroke-dasharray:none;stroke-opacity:1"
           id="circle992"
           cx="-29.038853"
           cy="34.550182"
           r="4" />
      </g>
      <g
         id="g1261"
         transform="translate(68.323783,74.398655)">
        <path
           id="path1255"
           style="display:inline;opacity:1;fill:none;fill-opacity:1;stroke:#000000;stroke-width:0.1;stroke-linejoin:miter;stroke-miterlimit:4;stroke-dasharray:none;stroke-opacity:1"
           d="m -39.370827,32.527662 c -2.143594,0 -4.124356,-1.143593 -5.196153,-3 -1.071797,-1.856406 -1.071797,-4.143594 0,-6 1.071797,-1.856407 3.052559,-3 5.196153,-3"
           sodipodi:nodetypes="cssc" />
        <path
           id="path1257"
           style="display:inline;opacity:1;fill:none;fill-opacity:1;stroke:#000000;stroke-width:0.1;stroke-linejoin:miter;stroke-miterlimit:4;stroke-dasharray:none;stroke-opacity:1"
           d="m -39.370827,20.527662 h 12 v 12 h -12"
           sodipodi:nodetypes="cccc" />
        <ellipse
           style="fill:#000000;fill-opacity:0.0943718;stroke:#767676;stroke-width:0.441176;stroke-linecap:square;stroke-linejoin:miter;stroke-miterlimit:4;stroke-dasharray:none;stroke-opacity:1"
           id="ellipse1259"
           cx="-33.345825"
           cy="26.527662"
           rx="3.5294123"
           ry="3.529412" />
      </g>
    </g>
    <ellipse
       style="fill:#ff0000;fill-opacity:1;stroke:url(#radialGradient973);stroke-width:0.481397;stroke-linejoin:round;stroke-opacity:0.345227"
       id="path959"
       cx="42.938686"
       cy="23.0263"
       rx="0.75930142"
       ry="0.75930148" />
    <ellipse
       style="fill:#ff0000;fill-opacity:1;stroke:url(#radialGradient977);stroke-width:0.481397;stroke-linejoin:round;stroke-opacity:0.345227"
       id="circle961"
       cx="42.938686"
       cy="79.810791"
       rx="0.75930142"
       ry="0.75930148" />
    <ellipse
       style="fill:#ff0000;fill-opacity:1;stroke:url(#radialGradient975);stroke-width:0.481397;stroke-linejoin:round;stroke-opacity:0.345227"
       id="circle963"
       cx="42.938686"
       cy="51.418549"
       rx="0.75930142"
       ry="0.75930148" />
    <ellipse
       style="fill:#ff0000;fill-opacity:1;stroke:url(#radialGradient979);stroke-width:0.481397;stroke-linejoin:round;stroke-opacity:0.345227"
       id="circle965"
       cx="42.938686"
       cy="108.20304"
       rx="0.75930142"
       ry="0.75930148" />
  </g>
  <g
     inkscape:groupmode="layer"
     id="layer5"
     inkscape:label="Main Board"
     style="display:inline"
     transform="translate(-0.24711443,0.127115)">
    <rect
       style="display:inline;opacity:1;fill:none;fill-opacity:1;fill-rule:evenodd;stroke:#000000;stroke-width:0.25423;stroke-linejoin:miter;stroke-miterlimit:4;stroke-dasharray:none;stroke-opacity:1"
       id="rect1098"
       width="60.345772"
       height="128.24577"
       x="0.37422943"
       y="1.110223e-16"
       ry="3.2940941" />
  </g>
  <g
     inkscape:groupmode="layer"
     inkscape:label="Knobs Group"
     id="knobs-group"
     transform="translate(-0.24711443,0.127115)">
    <g
       inkscape:groupmode="layer"
       inkscape:label="Gate Length 1"
       id="g2893">
      <g
         inkscape:groupmode="layer"
         inkscape:label="Main color"
         id="g2891" />
    </g>
    <g
       inkscape:groupmode="layer"
       inkscape:label="Gate Length 1"
       id="g3601">
      <g
         inkscape:groupmode="layer"
         inkscape:label="Skirt"
         id="g3596" />
    </g>
  </g>
</svg>
