<?xml version="1.0" encoding="UTF-8" standalone="no"?>
<svg
   xmlns:dc="http://purl.org/dc/elements/1.1/"
   xmlns:cc="http://creativecommons.org/ns#"
   xmlns:rdf="http://www.w3.org/1999/02/22-rdf-syntax-ns#"
   xmlns:svg="http://www.w3.org/2000/svg"
   xmlns="http://www.w3.org/2000/svg"
   xmlns:sodipodi="http://sodipodi.sourceforge.net/DTD/sodipodi-0.dtd"
   xmlns:inkscape="http://www.inkscape.org/namespaces/inkscape"
   sodipodi:docname="frontpanel.svg"
   id="svg1308"
   version="1.1"
   viewBox="0 0 60.72 128.5"
   height="485.6692913385827"
   width="229.49291338582677"
   inkscape:version="1.0.2 (e86c870879, 2021-01-15)">
  <defs
     id="defs1302" />
  <sodipodi:namedview
     id="base"
     pagecolor="#ffffff"
     bordercolor="#666666"
     borderopacity="1.0"
     inkscape:pageopacity="0.0"
     inkscape:pageshadow="2"
     inkscape:zoom="1.4"
     inkscape:cx="27.996808"
     inkscape:cy="229.00451"
     inkscape:document-units="mm"
     inkscape:current-layer="g3599"
     inkscape:document-rotation="0"
     showgrid="false"
     inkscape:pagecheckerboard="true" />
  <metadata
     id="metadata1305">
    <rdf:RDF>
      <cc:Work
         rdf:about="">
        <dc:format>image/svg+xml</dc:format>
        <dc:type
           rdf:resource="http://purl.org/dc/dcmitype/StillImage" />
        <dc:title></dc:title>
      </cc:Work>
    </rdf:RDF>
  </metadata>
  <g
     inkscape:label="Layer 1"
     inkscape:groupmode="layer"
     id="layer1" />
  <g
     inkscape:label="Panel"
     id="g1317"
     sodipodi:insensitive="true">
    <g
       inkscape:groupmode="layer"
       inkscape:label="Panel"
       id="panel">
      <rect
         x="0"
         y="0"
         width="60.720001"
         height="128.5"
         rx="0"
         ry="0"
         style="fill:#ffffff;stroke:none;stroke-width:0mm"
         id="rect1314" />
    </g>
  </g>
  <g
     inkscape:label="Panel"
     id="g1334"
     sodipodi:insensitive="true">
    <g
       inkscape:groupmode="layer"
       inkscape:label="Panel"
       id="g1332">
      <rect
         x="0"
         y="0"
         width="60.720001"
         height="128.5"
         rx="0"
         ry="0"
         style="fill:#ffffff;stroke:none;stroke-width:0mm"
         id="rect1330" />
    </g>
  </g>
  <g
     inkscape:groupmode="layer"
     inkscape:label="Jacks Group"
     id="jacks-group">
    <g
       inkscape:groupmode="layer"
       inkscape:label="Man Input"
       id="g1485">
      <g
         inkscape:groupmode="layer"
         inkscape:label="Nut skirt"
         id="g1476" />
      <g
         inkscape:groupmode="layer"
         inkscape:label="Nut"
         id="g1480" />
      <g
         inkscape:groupmode="layer"
         inkscape:label="Main color"
         id="g1483" />
    </g>
    <g
       inkscape:groupmode="layer"
       inkscape:label="Man Input"
       id="g1522">
      <g
         inkscape:groupmode="layer"
         inkscape:label="Nut skirt"
         id="g1512" />
      <g
         inkscape:groupmode="layer"
         inkscape:label="Nut"
         id="g1516" />
      <g
         inkscape:groupmode="layer"
         inkscape:label="Main color"
         id="g1520" />
    </g>
    <g
       inkscape:groupmode="layer"
       inkscape:label="Man Input"
       id="g3150">
      <g
         inkscape:groupmode="layer"
         inkscape:label="Nut skirt"
         id="g3137" />
      <g
         inkscape:groupmode="layer"
         inkscape:label="Nut"
         id="g3141" />
      <g
         inkscape:groupmode="layer"
         inkscape:label="Main color"
         id="g3144" />
      <g
         inkscape:groupmode="layer"
         inkscape:label="Centering circle"
         id="g3148" />
    </g>
  </g>
  <g
     inkscape:groupmode="layer"
     inkscape:label="Knobs Group"
     id="knobs-group">
    <g
       inkscape:groupmode="layer"
       inkscape:label="Gate Length 1"
       id="g2893">
      <g
         inkscape:groupmode="layer"
         inkscape:label="Main color"
         id="g2891" />
    </g>
    <g
       inkscape:groupmode="layer"
       inkscape:label="Gate Length 1"
       id="g3601">
      <g
         inkscape:groupmode="layer"
         inkscape:label="Skirt"
         id="g3596" />
      <g
         inkscape:groupmode="layer"
         inkscape:label="Main color"
         id="g3599">
        <g
           id="g4989">
          <rect
             style="fill:#000000;fill-opacity:0.054902;stroke:#000000;stroke-width:1.34295;stroke-linejoin:round"
             id="rect3643"
             width="18.657047"
             height="18.657047"
             x="9.4738541"
             y="-21.156443"
             ry="3.2693753"
             transform="rotate(90)" />
          <g
             id="g4866"
             transform="translate(0,-1.0734058)">
            <path
               sodipodi:type="star"
               sodipodi:cx="52.379948"
               sodipodi:cy="14.386305"
               sodipodi:arg1="0.78539816"
               sodipodi:arg2="0.84823001"
               inkscape:rounded="0"
               sodipodi:sides="50"
               sodipodi:r1="4"
               sodipodi:r2="3.8095238"
               style="fill:#1a5fb4;stroke:#000000;stroke-width:0.1"
               id="path3169"
               inkscape:flatsided="false"
               inkscape:randomized="0"
               d="m 55.208375,17.214732 -0.309144,0.02914 -0.06766,0.303054 -0.310358,-0.0098 -0.105105,0.292185 -0.306678,-0.04866 -0.140896,0.276708 -0.298161,-0.08671 -0.174466,0.256867 -0.284942,-0.123397 -0.205284,0.232975 -0.26723,-0.158136 -0.232865,0.205409 -0.245303,-0.190382 -0.256774,0.174604 -0.219507,-0.219626 -0.276632,0.141045 -0.190251,-0.245405 -0.292128,0.105261 -0.157993,-0.267315 -0.303017,0.06782 -0.123244,-0.285009 -0.309128,0.02931 -0.08655,-0.298208 -0.310364,-0.0097 -0.04849,-0.306704 -0.306705,-0.04849 -0.0097,-0.310363 -0.298208,-0.08655 0.02931,-0.309128 -0.285008,-0.123243 0.06782,-0.303018 -0.267315,-0.157992 0.105261,-0.292129 -0.245405,-0.19025 0.141044,-0.276632 -0.219625,-0.219508 0.174604,-0.256773 -0.190383,-0.245303 0.20541,-0.232865 -0.158137,-0.26723 0.232976,-0.205284 -0.123397,-0.284943 0.256867,-0.174465 -0.08671,-0.298162 0.276708,-0.140896 -0.04866,-0.306678 0.292184,-0.105104 -0.0098,-0.310358 0.303054,-0.06766 0.02914,-0.309144 0.309143,-0.02914 0.06766,-0.303054 0.310359,0.0098 0.105104,-0.292185 0.306678,0.04866 0.140896,-0.276708 0.298161,0.08671 0.174466,-0.256867 0.284943,0.123397 0.205284,-0.232976 0.26723,0.158137 0.232865,-0.205409 0.245303,0.190382 0.256773,-0.174604 0.219507,0.219626 0.276633,-0.141045 0.19025,0.245405 0.292128,-0.105261 0.157993,0.267315 0.303018,-0.06782 0.123243,0.285009 0.309128,-0.02931 0.08655,0.298207 0.310363,0.0097 0.04849,0.306704 0.306704,0.04849 0.0097,0.310364 0.298208,0.08655 -0.02931,0.309128 0.285009,0.123244 -0.06782,0.303017 0.267315,0.157993 -0.105262,0.292129 0.245406,0.19025 -0.141045,0.276632 0.219626,0.219508 -0.174604,0.256773 0.190382,0.245303 -0.205409,0.232865 0.158136,0.26723 -0.232975,0.205284 0.123396,0.284942 -0.256867,0.174466 0.08671,0.298161 -0.276708,0.140896 0.04866,0.306679 -0.292185,0.105104 0.0098,0.310358 -0.303054,0.06766 z" />
            <circle
               cx="52.379948"
               cy="14.386305"
               r="2.375"
               id="circle3171"
               style="fill:#000000;stroke:#000000;stroke-width:1.25" />
          </g>
          <g
             id="g4870"
             transform="translate(0,-0.64235378)">
            <path
               sodipodi:type="star"
               sodipodi:cx="52.379948"
               sodipodi:cy="28.508711"
               sodipodi:arg1="0.78539816"
               sodipodi:arg2="0.84823001"
               inkscape:rounded="0"
               sodipodi:sides="50"
               sodipodi:r1="4"
               sodipodi:r2="3.8095238"
               style="fill:#1a5fb4;stroke:#000000;stroke-width:0.1"
               id="path3177"
               inkscape:flatsided="false"
               inkscape:randomized="0"
               d="m 55.208375,31.337138 -0.309144,0.02914 -0.06766,0.303054 -0.310358,-0.0098 -0.105105,0.292185 -0.306678,-0.04866 -0.140896,0.276708 -0.298161,-0.08671 -0.174466,0.256867 -0.284942,-0.123397 -0.205284,0.232975 -0.26723,-0.158136 -0.232865,0.205409 -0.245303,-0.190382 -0.256774,0.174604 -0.219507,-0.219626 -0.276632,0.141045 -0.190251,-0.245405 -0.292128,0.105261 -0.157993,-0.267315 -0.303017,0.06782 -0.123244,-0.285009 -0.309128,0.0293 -0.08655,-0.298208 -0.310364,-0.0097 -0.04849,-0.306704 -0.306705,-0.04849 -0.0097,-0.310363 -0.298208,-0.08655 0.02931,-0.309128 -0.285008,-0.123243 0.06782,-0.303018 -0.267315,-0.157992 0.105261,-0.292129 -0.245405,-0.19025 0.141044,-0.276632 -0.219625,-0.219508 0.174604,-0.256773 -0.190383,-0.245303 0.20541,-0.232865 -0.158137,-0.26723 0.232976,-0.205284 -0.123397,-0.284943 0.256867,-0.174465 -0.08671,-0.298162 0.276708,-0.140896 -0.04866,-0.306678 0.292184,-0.105104 -0.0098,-0.310358 0.303054,-0.06765 0.02914,-0.309144 0.309143,-0.02914 0.06766,-0.303054 0.310359,0.0098 0.105104,-0.292185 0.306678,0.04866 0.140896,-0.276708 0.298161,0.08671 0.174466,-0.256867 0.284943,0.123397 0.205284,-0.232975 0.26723,0.158136 0.232865,-0.205409 0.245303,0.190382 0.256773,-0.174604 0.219507,0.219626 0.276633,-0.141045 0.19025,0.245405 0.292128,-0.105261 0.157993,0.267315 0.303018,-0.06782 0.123243,0.285009 0.309128,-0.0293 0.08655,0.298208 0.310363,0.0097 0.04849,0.306704 0.306704,0.04849 0.0097,0.310364 0.298208,0.08655 -0.02931,0.309128 0.285009,0.123244 -0.06782,0.303017 0.267315,0.157993 -0.105262,0.292129 0.245406,0.19025 -0.141045,0.276632 0.219626,0.219508 -0.174604,0.256773 0.190382,0.245303 -0.205409,0.232865 0.158136,0.26723 -0.232975,0.205284 0.123396,0.284942 -0.256867,0.174466 0.08671,0.298161 -0.276708,0.140896 0.04866,0.306679 -0.292185,0.105104 0.0098,0.310358 -0.303054,0.06765 z" />
            <circle
               cx="52.379948"
               cy="28.508711"
               r="2.375"
               id="circle3179"
               style="fill:#000000;stroke:#000000;stroke-width:1.25" />
          </g>
          <g
             id="g3656"
             transform="translate(4.1178334,-50.937101)">
            <circle
               cx="30.360001"
               cy="64.25"
               r="7.5"
               id="circle3652"
               style="fill:#ffffff;stroke:#9a9996;stroke-width:0.1" />
            <circle
               cx="30.360001"
               cy="64.25"
               r="3.75"
               id="circle3654"
               style="fill:#000000;stroke:#ffffff;stroke-width:0.5" />
          </g>
          <g
             id="g3949"
             transform="translate(15.893331,-30.984488)">
            <rect
               style="fill:#000000;fill-opacity:0.054902;stroke:#000000;stroke-width:0.951;stroke-linejoin:round"
               id="rect3946"
               width="12"
               height="7"
               x="12.584503"
               y="55.350845"
               ry="0.35366285" />
          </g>
        </g>
        <g
           id="g4963">
          <rect
             style="fill:#000000;fill-opacity:0.054902;stroke:#000000;stroke-width:1.34295;stroke-linejoin:round"
             id="rect3996"
             width="18.657047"
             height="18.657047"
             x="38.580769"
             y="-21.724573"
             ry="3.2693753"
             transform="rotate(90)" />
          <g
             id="g4874"
             transform="translate(0,-1.2559262)">
            <path
               sodipodi:type="star"
               sodipodi:cx="52.948078"
               sodipodi:cy="43.675739"
               sodipodi:arg1="0.78539816"
               sodipodi:arg2="0.84823001"
               inkscape:rounded="0"
               sodipodi:sides="50"
               sodipodi:r1="4"
               sodipodi:r2="3.8095238"
               style="fill:#1a5fb4;stroke:#000000;stroke-width:0.1"
               id="path3998"
               inkscape:flatsided="false"
               inkscape:randomized="0"
               d="m 55.776505,46.504166 -0.309144,0.02914 -0.06765,0.303054 -0.310358,-0.0098 -0.105104,0.292185 -0.306678,-0.04866 -0.140896,0.276708 -0.298162,-0.08671 -0.174465,0.256867 -0.284943,-0.123397 -0.205284,0.232976 -0.26723,-0.158137 -0.232865,0.20541 -0.245303,-0.190383 -0.256773,0.174604 -0.219508,-0.219625 -0.276632,0.141044 -0.19025,-0.245405 -0.292129,0.105261 -0.157992,-0.267315 -0.303018,0.06782 -0.123243,-0.285008 -0.309128,0.02931 -0.08655,-0.298208 -0.310363,-0.0097 -0.04849,-0.306705 -0.306704,-0.04849 -0.0097,-0.310364 -0.298208,-0.08655 0.02931,-0.309128 -0.285009,-0.123244 0.06782,-0.303017 -0.267315,-0.157993 0.105261,-0.292128 -0.245405,-0.190251 0.141045,-0.276632 -0.219626,-0.219507 0.174604,-0.256774 -0.190382,-0.245303 0.205409,-0.232865 -0.158136,-0.26723 0.232975,-0.205284 -0.123397,-0.284942 0.256867,-0.174466 -0.08671,-0.298161 0.276708,-0.140896 -0.04866,-0.306678 0.292185,-0.105105 -0.0098,-0.310358 0.303054,-0.06766 0.02914,-0.309144 0.309144,-0.02914 0.06766,-0.303054 0.310358,0.0098 0.105104,-0.292185 0.306679,0.04866 0.140896,-0.276708 0.298161,0.08671 0.174466,-0.256867 0.284942,0.123396 0.205284,-0.232975 0.26723,0.158136 0.232865,-0.205409 0.245303,0.190382 0.256773,-0.174604 0.219508,0.219626 0.276632,-0.141045 0.19025,0.245406 0.292129,-0.105262 0.157992,0.267315 0.303018,-0.06782 0.123244,0.285009 0.309128,-0.0293 0.08655,0.298208 0.310364,0.0097 0.04849,0.306704 0.306704,0.04849 0.0097,0.310363 0.298208,0.08655 -0.02931,0.309128 0.285009,0.123243 -0.06782,0.303018 0.267315,0.157993 -0.105261,0.292128 0.245405,0.19025 -0.141045,0.276632 0.219626,0.219508 -0.174604,0.256773 0.190382,0.245303 -0.205409,0.232865 0.158137,0.26723 -0.232976,0.205284 0.123397,0.284943 -0.256867,0.174465 0.08671,0.298162 -0.276708,0.140896 0.04866,0.306678 -0.292185,0.105104 0.0098,0.310358 -0.303054,0.06766 z" />
            <circle
               cx="52.948078"
               cy="43.675739"
               r="2.375"
               id="circle4000"
               style="fill:#000000;stroke:#000000;stroke-width:1.25" />
          </g>
          <g
             id="g4878"
             transform="translate(0,-0.82487242)">
            <path
               sodipodi:type="star"
               sodipodi:cx="52.948078"
               sodipodi:cy="57.798141"
               sodipodi:arg1="0.78539816"
               sodipodi:arg2="0.84823001"
               inkscape:rounded="0"
               sodipodi:sides="50"
               sodipodi:r1="4"
               sodipodi:r2="3.8095238"
               style="fill:#1a5fb4;stroke:#000000;stroke-width:0.1"
               id="path4006"
               inkscape:flatsided="false"
               inkscape:randomized="0"
               d="m 55.776505,60.626569 -0.309144,0.02914 -0.06765,0.303055 -0.310358,-0.0098 -0.105104,0.292185 -0.306678,-0.04866 -0.140896,0.276708 -0.298162,-0.08671 -0.174465,0.256867 -0.284943,-0.123396 -0.205284,0.232975 -0.26723,-0.158137 -0.232865,0.20541 -0.245303,-0.190382 -0.256773,0.174603 -0.219508,-0.219625 -0.276632,0.141045 -0.19025,-0.245406 -0.292129,0.105262 -0.157992,-0.267315 -0.303018,0.06782 -0.123243,-0.285009 -0.309128,0.02931 -0.08655,-0.298208 -0.310363,-0.0097 -0.04849,-0.306704 -0.306704,-0.04849 -0.0097,-0.310363 -0.298208,-0.08655 0.02931,-0.309128 -0.285009,-0.123244 0.06782,-0.303017 -0.267315,-0.157993 0.105261,-0.292128 -0.245405,-0.190251 0.141045,-0.276632 -0.219626,-0.219507 0.174604,-0.256773 -0.190382,-0.245304 0.205409,-0.232864 -0.158136,-0.26723 0.232975,-0.205284 -0.123397,-0.284943 0.256867,-0.174466 -0.08671,-0.298161 0.276708,-0.140896 -0.04866,-0.306678 0.292185,-0.105105 -0.0098,-0.310358 0.303054,-0.06766 0.02914,-0.309144 0.309144,-0.02914 0.06766,-0.303055 0.310358,0.0098 0.105104,-0.292185 0.306679,0.04866 0.140896,-0.276708 0.298161,0.08671 0.174466,-0.256867 0.284942,0.123396 0.205284,-0.232975 0.26723,0.158136 0.232865,-0.205409 0.245303,0.190382 0.256773,-0.174603 0.219508,0.219625 0.276632,-0.141045 0.19025,0.245406 0.292129,-0.105262 0.157992,0.267315 0.303018,-0.06782 0.123244,0.285009 0.309128,-0.02931 0.08655,0.298208 0.310364,0.0097 0.04849,0.306704 0.306704,0.04849 0.0097,0.310363 0.298208,0.08655 -0.02931,0.309128 0.285009,0.123243 -0.06782,0.303018 0.267315,0.157993 -0.105261,0.292128 0.245405,0.190251 -0.141045,0.276632 0.219626,0.219507 -0.174604,0.256773 0.190382,0.245304 -0.205409,0.232864 0.158137,0.26723 -0.232976,0.205284 0.123397,0.284943 -0.256867,0.174466 0.08671,0.298161 -0.276708,0.140896 0.04866,0.306678 -0.292185,0.105104 0.0098,0.310359 -0.303054,0.06766 z" />
            <circle
               cx="52.948078"
               cy="57.798141"
               r="2.375"
               id="circle4008"
               style="fill:#000000;stroke:#000000;stroke-width:1.25" />
          </g>
          <g
             id="g4018"
             transform="translate(4.6859627,-21.830187)">
            <circle
               cx="30.360001"
               cy="64.25"
               r="7.5"
               id="circle4014"
               style="fill:#ffffff;stroke:#9a9996;stroke-width:0.1" />
            <circle
               cx="30.360001"
               cy="64.25"
               r="3.75"
               id="circle4016"
               style="fill:#000000;stroke:#ffffff;stroke-width:0.5" />
          </g>
          <g
             id="g4022"
             transform="translate(16.46146,-1.8775763)">
            <rect
               style="fill:#000000;fill-opacity:0.054902;stroke:#000000;stroke-width:0.951;stroke-linejoin:round"
               id="rect4020"
               width="12"
               height="7"
               x="12.584503"
               y="55.350845"
               ry="0.35366285" />
          </g>
        </g>
        <g
           id="g4937">
          <rect
             style="fill:#000000;fill-opacity:0.054902;stroke:#000000;stroke-width:1.34295;stroke-linejoin:round"
             id="rect4026"
             width="18.657047"
             height="18.657047"
             x="67.687683"
             y="-21.947058"
             ry="3.2693753"
             transform="rotate(90)" />
          <g
             id="g4882"
             transform="translate(0,-1.4384468)">
            <path
               sodipodi:type="star"
               sodipodi:cx="53.170563"
               sodipodi:cy="72.965172"
               sodipodi:arg1="0.78539816"
               sodipodi:arg2="0.84823001"
               inkscape:rounded="0"
               sodipodi:sides="50"
               sodipodi:r1="4"
               sodipodi:r2="3.8095238"
               style="fill:#1a5fb4;stroke:#000000;stroke-width:0.1"
               id="path4028"
               inkscape:flatsided="false"
               inkscape:randomized="0"
               d="m 55.99899,75.793599 -0.309144,0.02914 -0.06766,0.303054 -0.310358,-0.0098 -0.105105,0.292185 -0.306678,-0.04866 -0.140896,0.276708 -0.298161,-0.08671 -0.174466,0.256867 -0.284942,-0.123397 -0.205284,0.232975 -0.26723,-0.158136 -0.232865,0.205409 -0.245303,-0.190382 -0.256773,0.174604 -0.219508,-0.219626 -0.276632,0.141045 -0.19025,-0.245406 -0.292129,0.105262 -0.157993,-0.267315 -0.303017,0.06782 -0.123244,-0.285009 -0.309128,0.0293 -0.08655,-0.298208 -0.310364,-0.0097 -0.04849,-0.306704 -0.306705,-0.04849 -0.0097,-0.310363 -0.298208,-0.08655 0.02931,-0.309128 -0.285009,-0.123243 0.06782,-0.303018 -0.267315,-0.157992 0.105261,-0.292129 -0.245405,-0.19025 0.141044,-0.276632 -0.219625,-0.219508 0.174604,-0.256773 -0.190382,-0.245303 0.205409,-0.232865 -0.158137,-0.26723 0.232976,-0.205284 -0.123397,-0.284943 0.256867,-0.174465 -0.08671,-0.298162 0.276708,-0.140896 -0.04866,-0.306678 0.292185,-0.105104 -0.0098,-0.310358 0.303054,-0.06766 0.02914,-0.309144 0.309143,-0.02914 0.06766,-0.303054 0.310358,0.0098 0.105104,-0.292185 0.306678,0.04866 0.140896,-0.276708 0.298162,0.08671 0.174465,-0.256867 0.284943,0.123397 0.205284,-0.232976 0.26723,0.158137 0.232865,-0.205409 0.245303,0.190382 0.256773,-0.174604 0.219508,0.219626 0.276632,-0.141045 0.19025,0.245405 0.292128,-0.105261 0.157993,0.267315 0.303018,-0.06782 0.123243,0.285009 0.309128,-0.0293 0.08655,0.298207 0.310363,0.0097 0.04849,0.306704 0.306704,0.04849 0.0097,0.310364 0.298208,0.08655 -0.02931,0.309128 0.285009,0.123244 -0.06782,0.303017 0.267315,0.157993 -0.105262,0.292129 0.245406,0.19025 -0.141045,0.276632 0.219626,0.219508 -0.174604,0.256773 0.190382,0.245303 -0.205409,0.232865 0.158136,0.26723 -0.232975,0.205284 0.123396,0.284942 -0.256867,0.174466 0.08671,0.298161 -0.276708,0.140896 0.04866,0.306678 -0.292185,0.105105 0.0098,0.310358 -0.303054,0.06766 z" />
            <circle
               cx="53.170563"
               cy="72.965172"
               r="2.375"
               id="circle4030"
               style="fill:#000000;stroke:#000000;stroke-width:1.25" />
          </g>
          <g
             id="g4886"
             transform="translate(0,-1.0073811)">
            <path
               sodipodi:type="star"
               sodipodi:cx="53.170563"
               sodipodi:cy="87.08757"
               sodipodi:arg1="0.78539816"
               sodipodi:arg2="0.84823001"
               inkscape:rounded="0"
               sodipodi:sides="50"
               sodipodi:r1="4"
               sodipodi:r2="3.8095238"
               style="fill:#1a5fb4;stroke:#000000;stroke-width:0.1"
               id="path4036"
               inkscape:flatsided="false"
               inkscape:randomized="0"
               d="m 55.99899,89.915997 -0.309144,0.02914 -0.06766,0.303054 -0.310358,-0.0098 -0.105105,0.292185 -0.306678,-0.04866 -0.140896,0.276708 -0.298161,-0.08671 -0.174466,0.256867 -0.284942,-0.123397 -0.205284,0.232976 -0.26723,-0.158137 -0.232865,0.205409 -0.245303,-0.190382 -0.256773,0.174604 -0.219508,-0.219626 -0.276632,0.141045 -0.19025,-0.245405 -0.292129,0.105261 -0.157993,-0.267315 -0.303017,0.06782 -0.123244,-0.285009 -0.309128,0.02931 -0.08655,-0.298207 -0.310364,-0.0097 -0.04849,-0.306704 -0.306705,-0.04849 -0.0097,-0.310364 -0.298208,-0.08655 0.02931,-0.309128 -0.285009,-0.123244 0.06782,-0.303017 -0.267315,-0.157993 0.105261,-0.292129 -0.245405,-0.19025 0.141044,-0.276632 -0.219625,-0.219508 0.174604,-0.256773 -0.190382,-0.245303 0.205409,-0.232865 -0.158137,-0.26723 0.232976,-0.205284 -0.123397,-0.284942 0.256867,-0.174466 -0.08671,-0.298161 0.276708,-0.140896 -0.04866,-0.306678 0.292185,-0.105105 -0.0098,-0.310358 0.303054,-0.06766 0.02914,-0.309144 0.309143,-0.02914 0.06766,-0.303054 0.310358,0.0098 0.105104,-0.292185 0.306678,0.04866 0.140896,-0.276708 0.298162,0.08671 0.174465,-0.256867 0.284943,0.123397 0.205284,-0.232975 0.26723,0.158136 0.232865,-0.205409 0.245303,0.190382 0.256773,-0.174604 0.219508,0.219626 0.276632,-0.141045 0.19025,0.245406 0.292128,-0.105262 0.157993,0.267315 0.303018,-0.06782 0.123243,0.285009 0.309128,-0.02931 0.08655,0.298208 0.310363,0.0097 0.04849,0.306704 0.306704,0.04849 0.0097,0.310363 0.298208,0.08655 -0.02931,0.309128 0.285009,0.123243 -0.06782,0.303018 0.267315,0.157992 -0.105262,0.292129 0.245406,0.19025 -0.141045,0.276632 0.219626,0.219508 -0.174604,0.256773 0.190382,0.245303 -0.205409,0.232865 0.158136,0.26723 -0.232975,0.205284 0.123396,0.284943 -0.256867,0.174465 0.08671,0.298162 -0.276708,0.140896 0.04866,0.306678 -0.292185,0.105104 0.0098,0.310358 -0.303054,0.06766 z" />
            <circle
               cx="53.170563"
               cy="87.08757"
               r="2.375"
               id="circle4038"
               style="fill:#000000;stroke:#000000;stroke-width:1.25" />
          </g>
          <g
             id="g4048"
             transform="translate(4.9084482,7.276725)">
            <circle
               cx="30.360001"
               cy="64.25"
               r="7.5"
               id="circle4044"
               style="fill:#ffffff;stroke:#9a9996;stroke-width:0.1" />
            <circle
               cx="30.360001"
               cy="64.25"
               r="3.75"
               id="circle4046"
               style="fill:#000000;stroke:#ffffff;stroke-width:0.5" />
          </g>
          <g
             id="g4052"
             transform="translate(16.683946,27.229344)">
            <rect
               style="fill:#000000;fill-opacity:0.054902;stroke:#000000;stroke-width:0.951;stroke-linejoin:round"
               id="rect4050"
               width="12"
               height="7"
               x="12.584503"
               y="55.350845"
               ry="0.35366285" />
          </g>
        </g>
        <g
           id="g5027">
          <g
             id="g5011">
            <path
               sodipodi:type="star"
               sodipodi:cx="12.618534"
               sodipodi:cy="100.63366"
               sodipodi:arg1="0.78539816"
               sodipodi:arg2="0.84823001"
               inkscape:rounded="0"
               sodipodi:sides="50"
               sodipodi:r1="4"
               sodipodi:r2="3.8095238"
               style="fill:#000000;fill-opacity:1;stroke:#000000;stroke-width:0.1"
               id="path3139"
               inkscape:flatsided="false"
               inkscape:randomized="0"
               d="m 15.446961,103.46209 -0.309144,0.0291 -0.06766,0.30305 -0.310358,-0.01 -0.105104,0.29219 -0.306678,-0.0487 -0.140896,0.27671 -0.298162,-0.0867 -0.174465,0.25686 -0.284943,-0.12339 -0.205284,0.23297 -0.26723,-0.15813 -0.232865,0.20541 -0.245303,-0.19039 -0.256773,0.17461 -0.219508,-0.21963 -0.276632,0.14105 -0.19025,-0.24541 -0.292129,0.10526 -0.157992,-0.26731 -0.303018,0.0678 -0.123243,-0.28501 -0.309128,0.0293 -0.08655,-0.29821 -0.3103634,-0.01 -0.048493,-0.3067 -0.3067042,-0.0485 -0.00967,-0.31037 -0.298208,-0.0866 0.029305,-0.30913 -0.2850088,-0.12324 0.067818,-0.30302 -0.267315,-0.15799 0.1052614,-0.29213 -0.2454054,-0.19025 0.1410448,-0.27663 -0.2196256,-0.21951 0.1746038,-0.25677 -0.1903822,-0.2453 0.2054093,-0.23287 -0.1581364,-0.26723 0.2329752,-0.205282 -0.1233966,-0.284943 0.2568671,-0.174466 -0.086711,-0.298161 0.2767079,-0.140896 -0.048658,-0.306678 0.2921849,-0.105105 -0.00984,-0.310358 0.3030541,-0.06766 0.029139,-0.309144 0.309144,-0.02914 0.06766,-0.303054 0.310358,0.0098 0.105104,-0.292185 0.306678,0.04866 0.140897,-0.276708 0.298161,0.08671 0.174466,-0.256867 0.284942,0.123396 0.205284,-0.232975 0.26723,0.158136 0.232865,-0.205409 0.245303,0.190382 0.256773,-0.174603 0.219508,0.219625 0.276632,-0.141045 0.19025,0.245406 0.292129,-0.105262 0.157992,0.267315 0.303018,-0.06782 0.123243,0.285009 0.309129,-0.0293 0.08655,0.298208 0.310364,0.0097 0.04849,0.306704 0.306704,0.04849 0.0097,0.310363 0.298208,0.08655 -0.02931,0.309128 0.285009,0.123243 -0.06782,0.303018 0.267315,0.157993 -0.105261,0.292128 0.245405,0.19025 -0.141045,0.276634 0.219626,0.21951 -0.174604,0.25677 0.190382,0.2453 -0.205409,0.23287 0.158136,0.26723 -0.232975,0.20528 0.123397,0.28494 -0.256867,0.17447 0.08671,0.29816 -0.276708,0.1409 0.04866,0.30668 -0.292185,0.1051 0.0098,0.31036 -0.303054,0.0677 z" />
            <circle
               cx="12.618533"
               cy="100.63365"
               r="2.375"
               id="id_Man Input"
               style="fill:#000000;stroke:#000000;stroke-width:1.25" />
          </g>
          <g
             id="g4890"
             transform="translate(0,-1.6209473)">
            <path
               sodipodi:type="star"
               sodipodi:cx="52.774975"
               sodipodi:cy="102.2546"
               sodipodi:arg1="0.78539816"
               sodipodi:arg2="0.84823001"
               inkscape:rounded="0"
               sodipodi:sides="50"
               sodipodi:r1="4"
               sodipodi:r2="3.8095238"
               style="fill:#1a5fb4;stroke:#000000;stroke-width:0.1"
               id="path4076"
               inkscape:flatsided="false"
               inkscape:randomized="0"
               d="m 55.603402,105.08303 -0.309144,0.0291 -0.06766,0.30305 -0.310358,-0.01 -0.105105,0.29219 -0.306678,-0.0487 -0.140896,0.27671 -0.298161,-0.0867 -0.174466,0.25687 -0.284942,-0.1234 -0.205284,0.23297 -0.26723,-0.15813 -0.232865,0.20541 -0.245303,-0.19039 -0.256773,0.17461 -0.219508,-0.21963 -0.276632,0.14105 -0.19025,-0.24541 -0.292129,0.10526 -0.157993,-0.26731 -0.303017,0.0678 -0.123244,-0.28501 -0.309128,0.0293 -0.08655,-0.29821 -0.310364,-0.01 -0.04849,-0.3067 -0.306704,-0.0485 -0.0097,-0.31037 -0.298207,-0.0865 0.02931,-0.30912 -0.285009,-0.12325 0.06782,-0.30302 -0.267315,-0.15799 0.105261,-0.29213 -0.245405,-0.19025 0.141045,-0.27663 -0.219626,-0.21951 0.174604,-0.25677 -0.190382,-0.2453 0.205409,-0.23287 -0.158137,-0.26723 0.232976,-0.20528 -0.123397,-0.28494 0.256867,-0.17447 -0.08671,-0.29816 0.276708,-0.1409 -0.04866,-0.30668 0.292185,-0.1051 -0.0098,-0.310358 0.303054,-0.06766 0.02914,-0.309144 0.309144,-0.02914 0.06765,-0.303055 0.310358,0.0098 0.105104,-0.292185 0.306678,0.04866 0.140896,-0.276708 0.298162,0.08671 0.174465,-0.256867 0.284943,0.123396 0.205284,-0.232975 0.26723,0.158137 0.232865,-0.20541 0.245303,0.190382 0.256773,-0.174603 0.219508,0.219625 0.276632,-0.141045 0.19025,0.245406 0.292128,-0.105262 0.157993,0.267315 0.303018,-0.06782 0.123243,0.285009 0.309128,-0.0293 0.08655,0.298208 0.310363,0.0097 0.04849,0.306704 0.306704,0.04849 0.0097,0.310363 0.298208,0.08655 -0.02931,0.30913 0.285009,0.12324 -0.06782,0.30302 0.267315,0.15799 -0.105262,0.29213 0.245406,0.19025 -0.141045,0.27663 0.219626,0.21951 -0.174604,0.25677 0.190382,0.2453 -0.205409,0.23287 0.158136,0.26723 -0.232975,0.20528 0.123397,0.28494 -0.256867,0.17447 0.08671,0.29816 -0.276708,0.1409 0.04866,0.30668 -0.292185,0.1051 0.0098,0.31036 -0.303054,0.0677 z" />
            <circle
               cx="52.774971"
               cy="102.25459"
               r="2.375"
               id="circle4078"
               style="fill:#000000;stroke:#000000;stroke-width:1.25" />
          </g>
          <g
             id="g4894"
             transform="translate(0,-1.1898817)">
            <path
               sodipodi:type="star"
               sodipodi:cx="52.774975"
               sodipodi:cy="116.377"
               sodipodi:arg1="0.78539816"
               sodipodi:arg2="0.84823001"
               inkscape:rounded="0"
               sodipodi:sides="50"
               sodipodi:r1="4"
               sodipodi:r2="3.8095238"
               style="fill:#1a5fb4;stroke:#000000;stroke-width:0.1"
               id="path4084"
               inkscape:flatsided="false"
               inkscape:randomized="0"
               d="m 55.603402,119.20543 -0.309144,0.0291 -0.06766,0.30306 -0.310358,-0.01 -0.105105,0.29219 -0.306678,-0.0487 -0.140896,0.27671 -0.298161,-0.0867 -0.174466,0.25686 -0.284942,-0.12339 -0.205284,0.23297 -0.26723,-0.15813 -0.232865,0.20541 -0.245303,-0.19039 -0.256773,0.17461 -0.219508,-0.21963 -0.276632,0.14105 -0.19025,-0.24541 -0.292129,0.10526 -0.157993,-0.26731 -0.303017,0.0678 -0.123244,-0.28501 -0.309128,0.0293 -0.08655,-0.29821 -0.310364,-0.01 -0.04849,-0.3067 -0.306704,-0.0485 -0.0097,-0.31037 -0.298207,-0.0865 0.02931,-0.30913 -0.285009,-0.12324 0.06782,-0.30302 -0.267315,-0.15799 0.105261,-0.29213 -0.245405,-0.19025 0.141045,-0.27663 -0.219626,-0.21951 0.174604,-0.25677 -0.190382,-0.2453 0.205409,-0.23287 -0.158137,-0.26723 0.232976,-0.20528 -0.123397,-0.28495 0.256867,-0.17446 -0.08671,-0.29816 0.276708,-0.1409 -0.04866,-0.30668 0.292185,-0.1051 -0.0098,-0.31036 0.303054,-0.0677 0.02914,-0.30915 0.309144,-0.0291 0.06765,-0.30305 0.310358,0.01 0.105104,-0.29219 0.306678,0.0487 0.140896,-0.27671 0.298162,0.0867 0.174465,-0.25687 0.284943,0.1234 0.205284,-0.23297 0.26723,0.15813 0.232865,-0.20541 0.245303,0.19038 0.256773,-0.1746 0.219508,0.21963 0.276632,-0.14105 0.19025,0.24541 0.292128,-0.10526 0.157993,0.26731 0.303018,-0.0678 0.123243,0.28501 0.309128,-0.0293 0.08655,0.2982 0.310363,0.01 0.04849,0.30671 0.306704,0.0485 0.0097,0.31036 0.298208,0.0866 -0.02931,0.30912 0.285009,0.12325 -0.06782,0.30301 0.267315,0.158 -0.105262,0.29213 0.245406,0.19025 -0.141045,0.27663 0.219626,0.21951 -0.174604,0.25677 0.190382,0.2453 -0.205409,0.23287 0.158136,0.26723 -0.232975,0.20528 0.123397,0.28494 -0.256867,0.17447 0.08671,0.29816 -0.276708,0.1409 0.04866,0.30667 -0.292185,0.10511 0.0098,0.31036 -0.303054,0.0677 z" />
            <circle
               cx="52.774971"
               cy="116.377"
               r="2.375"
               id="circle4086"
               style="fill:#000000;stroke:#000000;stroke-width:1.25" />
          </g>
          <g
             id="g4096"
             transform="translate(4.5128582,36.383653)">
            <circle
               cx="30.360001"
               cy="64.25"
               r="7.5"
               id="circle4092"
               style="fill:#ffffff;stroke:#9a9996;stroke-width:0.1" />
            <circle
               cx="30.360001"
               cy="64.25"
               r="3.75"
               id="circle4094"
               style="fill:#000000;stroke:#ffffff;stroke-width:0.5" />
          </g>
          <g
             id="g4100"
             transform="translate(16.288356,56.336272)">
            <rect
               style="fill:#000000;fill-opacity:0.054902;stroke:#000000;stroke-width:0.951;stroke-linejoin:round"
               id="rect4098"
               width="12"
               height="7"
               x="12.584503"
               y="55.350845"
               ry="0.35366285" />
          </g>
        </g>
        <g
           id="g4214"
           transform="translate(-7.5534697,56.336272)">
          <rect
             style="fill:#000000;fill-opacity:0.054902;stroke:#000000;stroke-width:0.951;stroke-linejoin:round"
             id="rect4212"
             width="12"
             height="7"
             x="12.584503"
             y="55.350845"
             ry="0.35366285" />
        </g>
      </g>
    </g>
  </g>
</svg>
